<svg width="75" height="75" viewBox="0 0 75 75" fill="none" xmlns="http://www.w3.org/2000/svg">
<path d="M37.5 75C58.2107 75 75 58.2107 75 37.5C75 16.7893 58.2107 0 37.5 0C16.7893 0 0 16.7893 0 37.5C0 58.2107 16.7893 75 37.5 75Z" fill="#84DBFF"/>
<path d="M38.5268 61.8156V10.4168C38.5268 10.0894 38.0655 9.83643 37.5 9.83643C36.9345 9.83643 36.4732 10.1043 36.4732 10.4168V61.8305H38.5268V61.8156Z" fill="#324A5E"/>
<path d="M37.5 11.7266C23.6905 11.7266 12.5 21.3843 12.5 33.2891H62.5C62.5 21.3694 51.3095 11.7266 37.5 11.7266Z" fill="white"/>
<path d="M37.5 11.7266C27.6339 11.7266 19.6429 21.3843 19.6429 33.2891H55.3571C55.3571 21.3694 47.3661 11.7266 37.5 11.7266Z" fill="#2090A4"/>
<path d="M37.5 11.7266C31.5774 11.7266 26.7857 21.3843 26.7857 33.2891H48.2143C48.2143 21.3694 43.4226 11.7266 37.5 11.7266Z" fill="white"/>
<path d="M37.5 11.7266C35.5208 11.7266 33.9286 21.3843 33.9286 33.2891H41.0714C41.0714 21.3694 39.4792 11.7266 37.5 11.7266Z" fill="#2090A4"/>
<path d="M62.5 33.2739C62.5 34.6281 60.9077 35.7144 58.9286 35.7144C56.9494 35.7144 55.3571 34.6132 55.3571 33.2739" fill="#E6E9EE"/>
<path d="M55.3572 33.2739C55.3572 34.6281 53.7649 35.7144 51.7857 35.7144C49.8066 35.7144 48.2143 34.6132 48.2143 33.2739" fill="#F1543F"/>
<path d="M48.2143 33.2739C48.2143 34.6281 46.622 35.7144 44.6429 35.7144C42.6637 35.7144 41.0714 34.6132 41.0714 33.2739" fill="#E6E9EE"/>
<path d="M41.0714 33.2739C41.0714 34.6281 39.4792 35.7144 37.5 35.7144C35.5208 35.7144 33.9286 34.6132 33.9286 33.2739" fill="#F1543F"/>
<path d="M33.9286 33.2739C33.9286 34.6281 32.3363 35.7144 30.3571 35.7144C28.378 35.7144 26.7857 34.6132 26.7857 33.2739" fill="#E6E9EE"/>
<path d="M26.7857 33.2739C26.7857 34.6281 25.1934 35.7144 23.2143 35.7144C21.2351 35.7144 19.6429 34.6132 19.6429 33.2739" fill="#F1543F"/>
<path d="M19.6429 33.2739C19.6429 34.6281 18.0506 35.7144 16.0714 35.7144C14.0923 35.7144 12.5 34.6132 12.5 33.2739" fill="#E6E9EE"/>
<path d="M37.5 74.9999C49.6577 74.9999 60.4762 69.1964 67.3214 60.2231H7.67856C14.5238 69.1964 25.3422 74.9999 37.5 74.9999Z" fill="#FFD05B"/>
</svg>
