<svg width="75" height="75" viewBox="0 0 75 75" fill="none" xmlns="http://www.w3.org/2000/svg">
<path d="M37.5 75C58.2107 75 75 58.2107 75 37.5C75 16.7893 58.2107 0 37.5 0C16.7893 0 0 16.7893 0 37.5C0 58.2107 16.7893 75 37.5 75Z" fill="#324A5E"/>
<path d="M55.7887 42.2913V44.1216H20.3125V28.8984H15.4464V55.2228H20.3125V48.0353H55.7887V55.2228H59.5536V42.2913H55.7887Z" fill="#FFD05B"/>
<path d="M55.5804 39.7471H20.3125V44.1221H55.7887V39.9554C55.7887 39.8364 55.6845 39.7471 55.5804 39.7471Z" fill="#D0947C"/>
<path d="M27.5298 37.2769H20.3125V39.7471H28.2589V37.9019C28.2589 37.5596 27.9315 37.2769 27.5298 37.2769Z" fill="#9AB4A9"/>
<path d="M36.8304 17.3958C36.8304 15.6547 37.4107 14.0476 38.3631 12.7529C35.3423 14.0178 33.2292 16.994 33.2292 20.4761C33.2292 25.1041 36.9792 28.8541 41.6072 28.8541C45.0893 28.8541 48.0655 26.741 49.3304 23.7202C48.0208 24.6875 46.4286 25.2529 44.6875 25.2529C40.3423 25.238 36.8304 21.7261 36.8304 17.3958Z" fill="white"/>
</svg>
