<svg width="75" height="75" viewBox="0 0 75 75" fill="none" xmlns="http://www.w3.org/2000/svg">
<g clip-path="url(#clip0)">
<path d="M37.4998 75.0004C58.2102 75.0004 74.9993 58.2113 74.9993 37.5009C74.9993 16.7906 58.2102 0.00146484 37.4998 0.00146484C16.7894 0.00146484 0.000320435 16.7906 0.000320435 37.5009C0.000320435 58.2113 16.7894 75.0004 37.4998 75.0004Z" fill="#9AB4A9"/>
<path d="M10.9843 10.9826C25.6279 -3.66088 49.372 -3.66088 64.0155 10.9826C78.659 25.6285 78.6614 49.3703 64.0155 64.0162" fill="#54766A"/>
<path d="M32.9402 15.6562C31.8844 15.6562 31.0312 16.5105 31.0312 17.5629V23.9788H28.2575V17.5629C28.2575 16.5106 27.4033 15.6562 26.3509 15.6562C25.295 15.6562 24.4442 16.5105 24.4442 17.5629V23.9788H21.6692V17.5629C21.6692 16.5106 20.815 15.6562 19.7614 15.6562C18.7067 15.6562 17.8547 16.5105 17.8547 17.5629V29.1807C17.8547 29.2194 17.8641 29.2557 17.8665 29.2956V34.8185C17.8665 36.6935 19.3841 38.2123 21.259 38.2123H24.0997C24.0985 38.2627 24.0951 38.3108 24.0951 38.3634L22.8939 58.8135C22.8939 60.7225 24.443 62.2717 26.3521 62.2717C28.2609 62.2717 29.8102 60.7225 29.8102 58.8135L28.6091 38.3634C28.6091 38.3108 28.6043 38.2627 28.6043 38.2123H31.4414C33.3151 38.2123 34.8362 36.6924 34.8362 34.8185V29.2932C34.8385 29.2569 34.8479 29.2206 34.8479 29.1807V17.5629C34.8469 16.5105 33.9938 15.6562 32.9402 15.6562Z" fill="#EFDDB7"/>
<path d="M57.1449 29.3963C57.1449 23.0636 53.1992 15.6562 48.3337 15.6562C43.4669 15.6562 39.5202 23.0624 39.5202 29.3963C39.5202 34.7083 42.3034 37.5701 46.0756 38.3551C46.0756 38.3575 46.0756 38.3597 46.0756 38.3645L44.8745 58.8145C44.8745 60.7236 46.4214 62.2727 48.3338 62.2727C50.2429 62.2727 51.792 60.7236 51.792 58.8145L50.5896 38.3633C50.5896 38.3585 50.5896 38.3563 50.5896 38.3539C54.3595 37.5699 57.1449 34.7105 57.1449 29.3963Z" fill="#EFDDB7"/>
<path d="M48.3339 15.6562C43.4671 15.6562 39.5204 23.0624 39.5204 29.3963C39.5204 34.7083 42.3036 37.5701 46.0758 38.3551C46.0758 38.3575 46.0758 38.3597 46.0758 38.3645L45.6481 45.6499L51.3539 51.3558L50.5898 38.3634C50.5898 38.3587 50.5898 38.3565 50.5898 38.3541C54.3597 37.5689 57.1453 34.7108 57.1453 29.3952C57.145 23.0636 53.1982 15.6562 48.3339 15.6562Z" fill="#EFDDB7"/>
</g>
<defs>
<clipPath id="clip0">
<rect width="75" height="75" fill="white"/>
</clipPath>
</defs>
</svg>
