<svg width="219" height="183" viewBox="0 0 219 183" fill="none" xmlns="http://www.w3.org/2000/svg">
<path d="M184.247 111.396C183.018 112.36 183.945 114.35 186.323 115.844C188.573 117.259 190.498 118.829 192.035 120.507C193.65 122.269 196.69 123.519 198.823 123.29C199.724 123.193 200.319 122.853 200.584 122.357C200.949 121.676 200.695 120.708 199.76 119.689C197.379 117.088 194.277 114.556 190.783 112.36C188.4 110.864 185.477 110.432 184.247 111.396Z" fill="#54766A"/>
<path d="M49.0133 103.904C48.4801 104.887 47.6071 105.673 46.4126 106.238C44.8785 106.966 45.3674 108.864 47.5314 110.471C49.6978 112.074 52.7087 112.78 54.2558 112.05C56.1296 111.158 57.5029 109.932 58.3352 108.392L58.771 107.579C59.4461 106.321 57.9078 104.301 55.3296 103.062C52.7514 101.823 50.1217 101.838 49.4467 103.096L49.0133 103.904V103.904Z" fill="#54766A"/>
<path d="M16.2509 94.6511C16.4722 94.2386 16.4659 93.7139 16.1914 93.1089C15.4444 91.4799 15.2544 89.984 15.6205 88.6665C16.0069 87.2785 14.1847 85.2673 11.5483 84.1719C8.91187 83.0764 6.48159 83.3155 6.06703 84.7014C5.48704 86.7789 5.78516 89.1352 6.96963 91.7112C7.75953 93.4354 10.4665 95.1438 13.013 95.531C14.6645 95.7803 15.8426 95.4122 16.2509 94.6511Z" fill="#54766A"/>
<path d="M96.1187 115.583C96.0138 115.778 95.9195 115.976 95.8345 116.178C95.2639 117.482 96.9118 119.498 99.5088 120.684C102.039 121.841 104.541 121.774 105.191 120.562C105.208 120.53 105.225 120.499 105.237 120.464L107.607 116.002C108.281 114.745 106.745 112.728 104.17 111.49C101.596 110.252 98.9693 110.268 98.295 111.525L96.1187 115.583Z" fill="#54766A"/>
<path d="M20.0308 79.843L22.4692 75.2965C23.1435 74.0394 21.6072 72.0226 19.0324 70.7847C16.4577 69.5467 13.8314 69.5622 13.1572 70.8193L10.7188 75.3657C10.0446 76.6228 11.5808 78.6396 14.1556 79.8776C16.7304 81.1155 19.3566 81.1001 20.0308 79.843Z" fill="#54766A"/>
<path d="M110.085 88.9687C109.411 90.2258 110.947 92.2425 113.522 93.4805C116.097 94.7184 118.723 94.703 119.397 93.4459L121.835 88.8994C122.51 87.6423 120.973 85.6255 118.399 84.3876C115.824 83.1496 113.198 83.1651 112.523 84.4222L110.085 88.9687Z" fill="#54766A"/>
<path d="M76.6781 62.4189C74.1033 61.1809 71.4771 61.1964 70.8028 62.4535L68.3644 67C67.6902 68.2571 69.2264 70.2739 71.8012 71.5118C74.376 72.7498 77.0022 72.7343 77.6764 71.4772L80.1149 66.9307C80.7879 65.6759 79.2528 63.6568 76.6781 62.4189Z" fill="#54766A"/>
<path d="M112.283 106.997L114.721 102.451C115.395 101.194 113.859 99.1768 111.284 97.9388C108.71 96.7009 106.083 96.7164 105.409 97.9735L102.971 102.52C102.297 103.777 103.833 105.794 106.408 107.032C108.982 108.27 111.61 108.252 112.283 106.997Z" fill="#54766A"/>
<path d="M29.5834 61.7452C30.2577 60.4882 28.7214 58.4714 26.1466 57.2334C23.5719 55.9955 20.9456 56.0109 20.2714 57.268L17.833 61.8145C17.1588 63.0716 18.695 65.0884 21.2698 66.3263C23.8446 67.5643 26.4708 67.5488 27.145 66.2917L29.5834 61.7452Z" fill="#54766A"/>
<path d="M54.136 94.1025C53.4618 95.3596 54.9981 97.3764 57.5728 98.6143C60.1476 99.8523 62.7739 99.8368 63.4481 98.5797L65.8865 94.0333C66.5607 92.7762 65.0245 90.7594 62.4497 89.5214C59.8749 88.2835 57.2487 88.299 56.5745 89.5561L54.136 94.1025Z" fill="#54766A"/>
<path d="M69.5639 75.9702C66.9891 74.7322 64.3629 74.7477 63.6886 76.0048L61.2502 80.5512C60.576 81.8083 62.1123 83.8251 64.687 85.0631C67.2618 86.301 69.888 86.2856 70.5623 85.0285L73.0007 80.482C73.6737 79.2272 72.1387 77.2081 69.5639 75.9702Z" fill="#54766A"/>
<path d="M103.362 52.5475C100.691 51.5149 98.3056 51.8575 98.0597 53.312C97.7959 54.7667 99.7521 56.7842 102.419 57.8145C103.289 58.1527 104.158 58.5254 105.062 58.9666C106.639 59.7268 108.139 60.5885 109.525 61.5291C111.822 63.0852 114.805 63.6451 116.186 62.7725C116.429 62.6171 116.606 62.4299 116.72 62.2157C117.253 61.2182 116.421 59.661 114.527 58.3774C112.346 56.9008 109.993 55.5493 107.557 54.375C106.207 53.7189 104.795 53.1021 103.362 52.5475Z" fill="#54766A"/>
<path d="M188.177 143.194L185.738 147.74C185.064 148.997 186.6 151.014 189.175 152.252C191.75 153.49 194.376 153.475 195.05 152.217L197.489 147.671C198.163 146.414 196.627 144.397 194.052 143.159C191.477 141.921 188.85 141.939 188.177 143.194Z" fill="#54766A"/>
<path d="M181.063 156.745L178.624 161.291C177.95 162.549 179.486 164.565 182.061 165.803C184.636 167.041 187.262 167.026 187.936 165.769L190.375 161.222C191.049 159.965 189.513 157.948 186.938 156.71C184.363 155.472 181.736 155.49 181.063 156.745Z" fill="#54766A"/>
<path d="M156.396 113.448C153.821 112.21 151.195 112.226 150.521 113.483L148.082 118.029C147.408 119.286 148.944 121.303 151.519 122.541C154.094 123.779 156.72 123.763 157.394 122.506L159.833 117.96C160.506 116.705 158.971 114.686 156.396 113.448Z" fill="#54766A"/>
<path d="M149.282 126.999C146.707 125.761 144.081 125.777 143.407 127.034L140.968 131.58C140.294 132.838 141.83 134.854 144.405 136.092C146.98 137.33 149.606 137.315 150.28 136.058L152.719 131.511C153.392 130.256 151.857 128.237 149.282 126.999Z" fill="#54766A"/>
<path d="M195.205 129.803L192.851 134.191C192.177 135.448 193.714 137.465 196.289 138.703C198.863 139.941 201.49 139.926 202.164 138.668L204.563 134.185L199.942 131.881L204.598 134.119C205.272 132.862 203.693 130.925 201.118 129.687C198.548 128.451 195.879 128.546 195.205 129.803Z" fill="#54766A"/>
<path d="M174.411 109.539C174.676 109.046 174.617 108.388 174.166 107.648C173.099 105.884 170.247 104.3 167.803 104.105C164.197 103.817 160.932 104.112 158.352 104.961C156.588 105.541 156.805 107.365 158.815 109.038C160.829 110.714 163.884 111.603 165.64 111.027C167.278 110.484 169.362 110.296 171.663 110.483C173.075 110.593 174.047 110.218 174.411 109.539Z" fill="#54766A"/>
<path d="M117.832 71.2328C118.148 72.6128 118.018 73.8502 117.445 74.9178L117.183 75.4071C116.507 76.6659 118.046 78.6854 120.625 79.9252C123.204 81.1649 125.834 81.1495 126.509 79.8908L126.772 79.4014C127.67 77.7261 127.872 75.7758 127.375 73.6073C127 71.9666 124.559 70.1089 121.924 69.4549C119.291 68.7987 117.451 69.6036 117.832 71.2328Z" fill="#54766A"/>
<path d="M38.8387 110.108C38.6717 108.51 36.3716 106.573 33.6955 105.781C31.9064 105.252 30.1111 104.558 28.3743 103.721C27.6668 103.377 26.9691 103.015 26.3012 102.641C23.8138 101.242 20.9846 101.003 19.9909 102.111C18.9997 103.27 20.2065 105.253 22.6857 106.645C23.7121 107.22 24.7732 107.775 25.8891 108.316C28.6492 109.646 31.4755 110.742 34.2894 111.573C36.4367 112.206 38.1712 111.909 38.6882 110.942C38.8162 110.702 38.8762 110.424 38.8387 110.108Z" fill="#54766A"/>
<path d="M143.758 143.977C144.224 143.109 143.652 141.794 142.141 140.585C140.069 138.93 137.026 138.099 135.339 138.73C133.759 139.318 131.728 139.563 129.457 139.431C127.042 139.292 126.013 140.608 127.16 142.375C128.303 144.14 131.187 145.685 133.602 145.824C137.158 146.028 140.35 145.649 142.824 144.721C143.275 144.55 143.588 144.295 143.758 143.977Z" fill="#54766A"/>
<path d="M81.8512 49.6634C79.0462 50.3611 76.9588 51.5929 75.6495 53.3221C74.7919 54.4832 76.1012 56.4969 78.6252 57.8335C81.1444 59.1678 83.8918 59.3108 84.7659 58.1519C85.5953 57.0546 86.919 56.2724 88.7003 55.8305C89.3228 55.6769 89.7349 55.3793 89.9427 54.992C90.3643 54.2059 89.9395 53.0388 88.6766 51.9015C86.7887 50.2 83.733 49.1981 81.8512 49.6634Z" fill="#54766A"/>
<path d="M114.811 134.328C112.523 132.94 110.551 131.391 108.947 129.718C107.267 127.965 104.215 126.77 102.13 127.051C100.055 127.337 99.7276 128.983 101.411 130.741C103.933 133.367 107.032 135.806 110.634 137.99C113.047 139.452 115.94 139.82 117.1 138.81C117.233 138.693 117.34 138.559 117.416 138.417C117.985 137.334 116.938 135.62 114.811 134.328Z" fill="#54766A"/>
<path d="M28.6807 15.48C24.4569 15.3793 21.1157 19.0205 21.231 23.5987C21.3462 28.1769 24.875 31.9819 29.0988 32.0826C33.3227 32.1834 36.6639 28.5421 36.5486 23.964C36.4333 19.3858 32.9046 15.5807 28.6807 15.48ZM29.0291 29.3155C26.2132 29.2484 23.8608 26.7117 23.7839 23.6596C23.707 20.6074 25.9345 18.18 28.7504 18.2471C31.5663 18.3143 33.9188 20.851 33.9957 23.9031C34.0725 26.9552 31.845 29.3827 29.0291 29.3155Z" fill="#EFDDB7"/>
<path d="M39.5504 12.9597C36.5711 9.35018 32.6679 7.30957 28.5576 7.21221C24.4474 7.11486 20.6417 8.97288 17.8406 12.4455C12.1497 19.5004 12.4423 31.2033 18.4928 38.5363L29.6795 52.0921L40.2013 39.0505C45.8935 31.9956 45.601 20.2928 39.5504 12.9597ZM38.25 37.1748L29.5766 47.9257L20.3539 36.7509C15.1509 30.4479 14.8994 20.3851 19.7933 14.3213C22.1192 11.4376 25.2572 9.89348 28.6267 9.97329C31.9961 10.0531 35.2163 11.7478 37.688 14.7451C42.891 21.0481 43.1425 31.1095 38.25 37.1748Z" fill="#EFDDB7"/>
<path d="M128.681 35.48C124.457 35.3793 121.116 39.0205 121.231 43.5987C121.346 48.1769 124.875 51.9819 129.099 52.0826C133.323 52.1834 136.664 48.5421 136.549 43.964C136.433 39.3858 132.905 35.5807 128.681 35.48ZM129.029 49.3155C126.213 49.2484 123.861 46.7117 123.784 43.6596C123.707 40.6074 125.935 38.18 128.75 38.2471C131.566 38.3143 133.919 40.851 133.996 43.9031C134.073 46.9552 131.845 49.3827 129.029 49.3155Z" fill="#A56953"/>
<path d="M139.55 32.9597C136.571 29.3502 132.668 27.3096 128.558 27.2122C124.447 27.1149 120.642 28.9729 117.841 32.4455C112.15 39.5004 112.442 51.2033 118.493 58.5363L129.679 72.0921L140.201 59.0505C145.893 51.9956 145.601 40.2928 139.55 32.9597ZM138.25 57.1748L129.577 67.9257L120.354 56.7509C115.151 50.4479 114.899 40.3851 119.793 34.3213C122.119 31.4376 125.257 29.8935 128.627 29.9733C131.996 30.0531 135.216 31.7478 137.688 34.7451C142.891 41.0481 143.143 51.1095 138.25 57.1748Z" fill="#A56953"/>
<path d="M175.681 127.48C171.457 127.379 168.116 131.021 168.231 135.599C168.346 140.177 171.875 143.982 176.099 144.083C180.323 144.183 183.664 140.542 183.549 135.964C183.433 131.386 179.905 127.581 175.681 127.48ZM176.029 141.316C173.213 141.248 170.861 138.712 170.784 135.66C170.707 132.607 172.935 130.18 175.75 130.247C178.566 130.314 180.919 132.851 180.996 135.903C181.073 138.955 178.845 141.383 176.029 141.316Z" fill="#2090A4"/>
<path d="M186.55 124.96C183.571 121.35 179.668 119.31 175.558 119.212C171.447 119.115 167.642 120.973 164.841 124.446C159.15 131.5 159.442 143.203 165.493 150.536L176.679 164.092L187.201 151.05C192.893 143.996 192.601 132.293 186.55 124.96ZM185.25 149.175L176.577 159.926L167.354 148.751C162.151 142.448 161.899 132.385 166.793 126.321C169.119 123.438 172.257 121.893 175.627 121.973C178.996 122.053 182.216 123.748 184.688 126.745C189.891 133.048 190.143 143.109 185.25 149.175Z" fill="#2090A4"/>
</svg>
