<svg width="203" height="161" viewBox="0 0 203 161" fill="none" xmlns="http://www.w3.org/2000/svg">
<g clip-path="url(#clip0)">
<path d="M91.6516 35.4107L78.9586 24.5548C78.7352 24.364 78.4327 24.2568 78.1171 24.2568H29.8831C29.2258 24.2568 28.6931 24.7123 28.6931 25.2746V84.9823C28.6931 85.5445 29.2256 86.0001 29.8831 86.0001H90.81C91.4673 86.0001 92 85.5446 92 84.9823V36.1305C92 35.8606 91.8748 35.6017 91.6516 35.4107Z" fill="#F2F2F2"/>
<path d="M91.9973 36.0854C91.9841 35.832 91.862 35.5911 91.6515 35.411L78.9583 24.555C78.7351 24.364 78.4325 24.2569 78.117 24.2569H78.0641V35.0677C78.0641 35.6297 78.5969 36.0855 79.2541 36.0855H91.9973V36.0854Z" fill="#E5E5E5"/>
<path d="M29.8831 24.2567C29.2258 24.2567 28.6931 24.7122 28.6931 25.2745V84.9822C28.6931 85.5444 29.2256 86 29.8831 86H85.679L36.2089 24.2567H29.8831Z" fill="#E5E5E5"/>
<path d="M47.8121 21H19.5699C17.6015 21 16 22.3697 16 24.0532V56.8924C16 58.576 17.6015 59.9457 19.5699 59.9457H47.8121C49.7805 59.9457 51.382 58.576 51.382 56.8924V24.0532C51.382 22.3697 49.7805 21 47.8121 21Z" fill="#666666"/>
<path d="M59.5882 61.3C53.6309 61.3 48.7843 65.2364 48.7843 70.075C48.7843 74.9135 53.6309 78.85 59.5882 78.85C65.5455 78.85 70.3922 74.9135 70.3922 70.075C70.3922 65.2364 65.5454 61.3 59.5882 61.3Z" fill="#9AB4A9"/>
<path d="M61.6808 77.1386C55.7416 77.1386 50.9096 73.2476 50.9096 68.4649C50.9096 66.509 51.7181 64.7025 53.0794 63.25C50.4725 64.8345 48.7843 67.3496 48.7843 70.1763C48.7843 74.959 53.6163 78.85 59.5555 78.85C63.0659 78.85 66.1892 77.4905 68.1569 75.3913C66.3532 76.4875 64.1098 77.1386 61.6808 77.1386Z" fill="#54766A"/>
<path d="M61.3646 69.5702L60.1589 69.5437V66.308H62.9082C63.3379 66.308 63.6863 66.0472 63.6863 65.7254C63.6863 65.4036 63.338 65.1428 62.9082 65.1428H60.1589V64.4826C60.1589 64.1608 59.8106 63.9 59.3807 63.9C58.951 63.9 58.6026 64.1608 58.6026 64.4826V65.1428H57.8245C56.5374 65.1428 55.4902 65.9268 55.4902 66.8905V68.9099C55.4902 69.8704 56.5306 70.6525 57.8119 70.6576L58.6026 70.6749V73.8421H56.2683C55.8385 73.8421 55.4902 74.1028 55.4902 74.4246C55.4902 74.7465 55.8385 75.0072 56.2683 75.0072H58.6026V75.6675C58.6026 75.9892 58.9509 76.25 59.3807 76.25C59.8105 76.25 60.1589 75.9893 60.1589 75.6675V75.0072H61.3519C62.639 75.0072 63.6862 74.2232 63.6862 73.2596V71.3178C63.6863 70.3574 62.6459 69.5754 61.3646 69.5702ZM57.8476 69.4928C57.84 69.4926 57.8323 69.4926 57.8247 69.4926C57.3956 69.4926 57.0466 69.2313 57.0466 68.91V66.8905C57.0466 66.5693 57.3956 66.308 57.8247 66.308H58.6028V69.5094L57.8476 69.4928ZM62.1301 73.2597C62.1301 73.581 61.7811 73.8423 61.352 73.8423H60.159V70.7094L61.3291 70.7352C61.3367 70.7353 61.3443 70.7354 61.352 70.7354C61.7811 70.7354 62.1301 70.9967 62.1301 71.3179V73.2597Z" fill="#F7D04A"/>
<path d="M46.3841 24.2567H20.9979C20.3406 24.2567 19.8079 24.7122 19.8079 25.2745V30.7025C19.8079 31.2647 20.3405 31.7203 20.9979 31.7203H46.3841C47.0414 31.7203 47.5741 31.2648 47.5741 30.7025V25.2745C47.5741 24.7123 47.0415 24.2567 46.3841 24.2567Z" fill="#F2F2F2"/>
<path d="M20.9979 24.2567C20.3406 24.2567 19.8079 24.7122 19.8079 25.2745V30.7025C19.8079 31.2647 20.3405 31.7203 20.9979 31.7203H26.1545L34.8809 24.2568H20.9979V24.2567Z" fill="#EFDDB7"/>
<path d="M46.3841 24.2567H41.9415L33.215 31.7202H46.3841C47.0414 31.7202 47.5741 31.2647 47.5741 30.7024V25.2745C47.5741 24.7123 47.0415 24.2567 46.3841 24.2567Z" fill="#EFDDB7"/>
<path d="M26.0752 32.9416H20.9979C20.3406 32.9416 19.8079 33.3971 19.8079 33.9594V38.3018C19.8079 38.864 20.3405 39.3196 20.9979 39.3196H26.0752C26.7325 39.3196 27.2652 38.8641 27.2652 38.3018V33.9594C27.2651 33.3971 26.7325 32.9416 26.0752 32.9416Z" fill="#EFDDB7"/>
<path d="M36.1502 32.9416H31.0729C30.4156 32.9416 29.8829 33.3971 29.8829 33.9594V38.3018C29.8829 38.864 30.4155 39.3196 31.0729 39.3196H36.1502C36.8075 39.3196 37.3403 38.8641 37.3403 38.3018V33.9594C37.3403 33.3971 36.8077 32.9416 36.1502 32.9416Z" fill="#EFDDB7"/>
<path d="M26.0752 41.6263H20.9979C20.3406 41.6263 19.8079 42.0819 19.8079 42.6441V46.9866C19.8079 47.5487 20.3405 48.0043 20.9979 48.0043H26.0752C26.7325 48.0043 27.2652 47.5488 27.2652 46.9866V42.6441C27.2651 42.0819 26.7325 41.6263 26.0752 41.6263Z" fill="#EFDDB7"/>
<path d="M36.1502 41.6263H31.0729C30.4156 41.6263 29.8829 42.0819 29.8829 42.6441V46.9866C29.8829 47.5487 30.4155 48.0043 31.0729 48.0043H36.1502C36.8075 48.0043 37.3403 47.5488 37.3403 46.9866V42.6441C37.3403 42.0819 36.8077 41.6263 36.1502 41.6263Z" fill="#EFDDB7"/>
<path d="M26.0752 50.311H20.9979C20.3406 50.311 19.8079 50.7665 19.8079 51.3288V55.6712C19.8079 56.2334 20.3405 56.689 20.9979 56.689H26.0752C26.7325 56.689 27.2652 56.2335 27.2652 55.6712V51.3288C27.2651 50.7665 26.7325 50.311 26.0752 50.311Z" fill="#EFDDB7"/>
<path d="M36.1502 50.311H31.0729C30.4156 50.311 29.8829 50.7665 29.8829 51.3288V55.6712C29.8829 56.2334 30.4155 56.689 31.0729 56.689H36.1502C36.8075 56.689 37.3403 56.2335 37.3403 55.6712V51.3288C37.3403 50.7665 36.8077 50.311 36.1502 50.311Z" fill="#EFDDB7"/>
<path d="M46.3048 32.9416H41.2275C40.5702 32.9416 40.0375 33.3971 40.0375 33.9594V38.3018C40.0375 38.864 40.5701 39.3196 41.2275 39.3196H46.3048C46.9621 39.3196 47.4949 38.8641 47.4949 38.3018V33.9594C47.4947 33.3971 46.9621 32.9416 46.3048 32.9416Z" fill="#EFDDB7"/>
<path d="M46.3841 41.6263H41.3068C40.6495 41.6263 40.1168 42.0819 40.1168 42.6441V55.6713C40.1168 56.2334 40.6494 56.6891 41.3068 56.6891H46.3841C47.0414 56.6891 47.5741 56.2336 47.5741 55.6713V42.6441C47.5741 42.0819 47.0416 41.6263 46.3841 41.6263Z" fill="#F7D04A"/>
<path d="M60.2115 32.8059C59.8875 32.8059 59.5646 32.6934 59.3296 32.4717L57.0274 30.3006C56.5859 29.8843 56.6226 29.2405 57.1096 28.863C57.5959 28.4852 58.3489 28.5165 58.7905 28.9333L61.0928 31.1045C61.5342 31.5207 61.4976 32.1645 61.0106 32.5421C60.7828 32.7188 60.4967 32.8059 60.2115 32.8059Z" fill="#666666"/>
<path d="M84.8913 48.184L65.931 31.9676C65.7647 31.8255 65.5532 31.7287 65.3228 31.6893L60.8351 30.9218C60.4451 30.8555 60.0418 30.9595 59.7603 31.2C59.4791 31.4406 59.357 31.7856 59.4349 32.1193L60.3323 35.9575C60.3783 36.1545 60.4916 36.3354 60.6577 36.4776L79.6184 52.694C80.3778 53.3435 81.4615 53.6677 82.5288 53.5687C83.4829 53.4802 84.2282 53.0695 84.8915 52.502C86.2834 51.3115 86.2834 49.3747 84.8913 48.184Z" fill="#EFDDB7"/>
<path d="M60.6576 36.4788L73.666 47.6044L78.939 43.0946L65.9306 31.969L60.6576 36.4788Z" fill="#EFDDB7"/>
<path d="M60.8351 30.9218C60.0168 30.7827 59.2713 31.4189 59.4349 32.1193L60.3323 35.9575C60.3784 36.1546 60.4916 36.3355 60.6577 36.4776L65.931 31.9676C65.7647 31.8256 65.5532 31.7287 65.3228 31.6894L60.8351 30.9218Z" fill="#F7D04A"/>
<path d="M84.8913 48.184L78.9397 43.0938L73.6665 47.6038L79.6181 52.694C80.3634 53.3314 81.429 53.6435 82.4752 53.5624C83.4493 53.4868 84.2148 53.0806 84.8912 52.5022C86.2834 51.3115 86.2834 49.3747 84.8913 48.184Z" fill="#50A9A9"/>
<path d="M83.0402 49.0579C82.7357 49.0579 82.4311 48.9586 82.1987 48.7599C81.7339 48.3623 81.7339 47.718 82.1987 47.3205L84.0279 45.7562L78.4316 41.211C77.955 40.8238 77.9355 40.1797 78.3881 39.7723C78.841 39.3646 79.5942 39.348 80.0704 39.7351L86.5523 44.9995C86.7851 45.1885 86.9188 45.4499 86.9228 45.7244C86.927 45.9987 86.8013 46.263 86.5746 46.4571L83.8819 48.7601C83.6492 48.9584 83.3446 49.0579 83.0402 49.0579Z" fill="#666666"/>
<path d="M45.4322 69.7161H37.499C36.8417 69.7161 36.3089 69.2606 36.3089 68.6983C36.3089 68.1362 36.8415 67.6805 37.499 67.6805H45.4322C46.0895 67.6805 46.6222 68.136 46.6222 68.6983C46.6221 69.2606 46.0895 69.7161 45.4322 69.7161Z" fill="#808080"/>
<path d="M45.4322 75.1441H37.499C36.8417 75.1441 36.3089 74.6886 36.3089 74.1263C36.3089 73.564 36.8415 73.1085 37.499 73.1085H45.4322C46.0895 73.1085 46.6222 73.564 46.6222 74.1263C46.6222 74.6886 46.0895 75.1441 45.4322 75.1441Z" fill="#808080"/>
</g>
<g clip-path="url(#clip1)">
<path d="M166.086 67.4281H115.312C113.528 67.4281 112.068 69.0565 112.068 71.0468V145.23C112.068 147.221 113.528 148.849 115.312 148.849H166.086C167.871 148.849 169.331 147.221 169.331 145.23V71.0468C169.331 69.0565 167.871 67.4281 166.086 67.4281Z" fill="#A56953"/>
<path d="M164.87 72.2555H116.366V143.906H164.87V72.2555Z" fill="white"/>
<path d="M151.649 62H129.75C127.803 62 126.181 63.8094 126.181 65.7997V75.7511H155.056V65.7997C155.218 63.8094 153.596 62 151.649 62Z" fill="#54766A"/>
<path d="M161.544 84.0742H133.318V88.2358H161.544V84.0742Z" fill="#4CDBC4"/>
<path d="M161.544 98.7299H133.318V102.891H161.544V98.7299Z" fill="#4CDBC4"/>
<path d="M161.544 113.386H133.318V117.547H161.544V113.386Z" fill="#4CDBC4"/>
<path d="M161.544 128.042H133.318V132.203H161.544V128.042Z" fill="#4CDBC4"/>
<path d="M128.614 125.146H119.692V135.098H128.614V125.146Z" fill="#EFDDB7"/>
<path d="M128.614 110.491H119.692V120.442H128.614V110.491Z" fill="#EFDDB7"/>
<path d="M128.614 95.835H119.692V105.786H128.614V95.835Z" fill="#EFDDB7"/>
<path d="M128.614 81.1791H119.692V91.1305H128.614V81.1791Z" fill="#EFDDB7"/>
<path d="M122.936 89.3214L120.827 86.7882L121.963 85.5217L122.936 86.6073L126.181 83.1695L127.316 84.436L122.936 89.3214Z" fill="#2090A4"/>
<path d="M123.099 103.796L120.99 101.444L122.125 100.177L123.099 101.263L126.343 97.8253L127.478 99.0918L123.099 103.796Z" fill="#2090A4"/>
<path d="M177.928 133.651H172.251L181.173 147.764C181.984 148.849 183.281 149.211 184.417 148.307C185.39 147.402 185.715 145.954 185.066 144.688L177.928 133.651Z" fill="#334A5E"/>
<path d="M165.275 133.651L158.3 144.869C157.489 145.954 157.813 147.583 158.949 148.487C159.922 149.392 161.382 149.03 162.193 147.945L171.115 133.832H165.275V133.651V133.651Z" fill="#334A5E"/>
<path d="M171.602 147.583C181.725 147.583 189.932 138.51 189.932 127.318C189.932 116.126 181.725 107.053 171.602 107.053C161.478 107.053 153.271 116.126 153.271 127.318C153.271 138.51 161.478 147.583 171.602 147.583Z" fill="#2090A4"/>
<path d="M171.602 143.602C163.491 143.602 157.002 136.365 157.002 127.318C157.002 118.271 163.653 111.034 171.602 111.034C179.713 111.034 186.201 118.271 186.201 127.318C186.201 136.184 179.713 143.602 171.602 143.602Z" fill="#EFDDB7"/>
<path d="M171.602 115.195C172.318 115.195 172.899 114.547 172.899 113.748C172.899 112.948 172.318 112.3 171.602 112.3C170.885 112.3 170.304 112.948 170.304 113.748C170.304 114.547 170.885 115.195 171.602 115.195Z" fill="#54766A"/>
<path d="M171.602 142.155C172.318 142.155 172.899 141.507 172.899 140.707C172.899 139.908 172.318 139.26 171.602 139.26C170.885 139.26 170.304 139.908 170.304 140.707C170.304 141.507 170.885 142.155 171.602 142.155Z" fill="#54766A"/>
<path d="M183.768 128.765C184.485 128.765 185.066 128.117 185.066 127.318C185.066 126.518 184.485 125.87 183.768 125.87C183.051 125.87 182.47 126.518 182.47 127.318C182.47 128.117 183.051 128.765 183.768 128.765Z" fill="#54766A"/>
<path d="M159.435 128.765C160.152 128.765 160.733 128.117 160.733 127.318C160.733 126.518 160.152 125.87 159.435 125.87C158.719 125.87 158.138 126.518 158.138 127.318C158.138 128.117 158.719 128.765 159.435 128.765Z" fill="#54766A"/>
<path d="M171.115 127.318C171.115 126.775 171.602 126.232 172.088 126.232H177.604C178.091 126.232 178.577 126.775 178.577 127.318C178.577 127.861 178.09 128.403 177.604 128.403H172.088C171.602 128.222 171.115 127.861 171.115 127.318Z" fill="#A56953"/>
<path d="M171.602 116.281C172.088 116.281 172.575 116.824 172.575 117.366V127.137C172.575 127.679 172.088 128.222 171.602 128.222C171.115 128.222 170.628 127.679 170.628 127.137V117.366C170.628 116.824 171.115 116.281 171.602 116.281Z" fill="#A56953"/>
<path d="M171.602 129.851C172.856 129.851 173.873 128.717 173.873 127.318C173.873 125.919 172.856 124.785 171.602 124.785C170.347 124.785 169.331 125.919 169.331 127.318C169.331 128.717 170.347 129.851 171.602 129.851Z" fill="#54766A"/>
<path d="M165.924 102.711L182.47 84.436L175.008 76.113L158.462 94.3876C158.3 94.5685 158.3 94.7495 158.138 94.7495C158.138 94.9304 157.975 95.1114 157.975 95.1114L157.813 95.4733L156.353 101.625L155.38 105.968L159.273 104.882L164.951 103.254L165.275 103.073C165.438 103.073 165.6 102.892 165.6 102.892C165.6 102.892 165.762 102.711 165.924 102.711Z" fill="#A56953"/>
<path d="M159.76 97.8253L177.117 78.4652L174.846 75.932L158.462 94.3875C158.3 94.5685 158.3 94.7494 158.138 94.7494C158.138 94.9304 157.975 95.1113 157.975 95.1113L157.813 95.4732L159.76 97.8253Z" fill="#54766A"/>
<path d="M165.924 102.711L182.47 84.4359L180.199 81.9028L162.842 101.082L164.789 103.253L165.113 103.072C165.275 103.072 165.438 102.891 165.438 102.891C165.6 102.891 165.762 102.711 165.924 102.711Z" fill="#54766A"/>
<path d="M159.111 104.882L156.353 101.806L155.218 106.148L159.111 104.882Z" fill="#334A5E"/>
<path d="M188.797 71.9514L185.877 68.6946C184.579 67.2471 182.47 67.2471 181.335 68.6946L177.117 73.399L184.579 81.722L188.797 77.0178C190.095 75.7511 190.095 73.399 188.797 71.9514Z" fill="#2090A4"/>
<path d="M159.76 97.8253L177.117 78.4652L180.199 81.903L162.842 101.082L159.76 97.8253Z" fill="#9AB4A9"/>
<path d="M177.117 73.5798L184.579 81.903L182.308 84.436L174.846 76.113L177.117 73.5798Z" fill="#A56953"/>
</g>
<rect x="121.157" y="22.5" width="58.3429" height="18.1293" rx="3.5" fill="white" stroke="#A56953"/>
<path d="M175.793 30.1169C175.181 30.1169 174.686 30.5175 174.686 31.0115V37.2741C174.686 37.7682 175.181 38.1687 175.793 38.1687C176.404 38.1687 176.9 37.7682 176.9 37.2741V31.0115C176.9 30.5175 176.404 30.1169 175.793 30.1169Z" fill="#D0947C"/>
<path d="M175.793 25.6437C175.181 25.6437 174.686 26.0443 174.686 26.5383V27.433C174.686 27.927 175.181 28.3276 175.793 28.3276C176.404 28.3276 176.9 27.927 176.9 27.433V26.5383C176.9 26.0443 176.404 25.6437 175.793 25.6437Z" fill="#D0947C"/>
<path d="M140.912 31.0342L138.312 31.0901L133.975 26.2022C133.968 26.1939 133.959 26.1865 133.952 26.1784C133.938 26.1644 133.925 26.1503 133.911 26.1369C133.897 26.1246 133.883 26.1131 133.869 26.1015C133.859 26.0926 133.848 26.0836 133.837 26.0751C133.821 26.0625 133.803 26.0508 133.786 26.039C133.776 26.0324 133.766 26.0255 133.756 26.0191C133.738 26.008 133.72 25.9977 133.701 25.9875C133.69 25.9814 133.679 25.9751 133.668 25.9693C133.65 25.9604 133.632 25.9524 133.614 25.9444C133.601 25.9383 133.587 25.932 133.573 25.9264C133.557 25.9199 133.541 25.9142 133.524 25.9084C133.507 25.9025 133.49 25.8965 133.473 25.8912C133.458 25.8867 133.443 25.883 133.428 25.8791C133.409 25.8739 133.39 25.8687 133.37 25.8644C133.355 25.8613 133.341 25.8589 133.326 25.8563C133.306 25.8527 133.286 25.8489 133.265 25.8462C133.248 25.8439 133.231 25.8426 133.214 25.8409C133.196 25.8392 133.178 25.8371 133.159 25.8362C133.135 25.8349 133.111 25.8349 133.088 25.8348C133.077 25.8347 133.066 25.8338 133.055 25.8341L133.046 25.8343C133.045 25.8343 133.045 25.8343 133.044 25.8343L130.703 25.8846C130.688 25.885 130.674 25.8866 130.66 25.8874C130.64 25.8885 130.619 25.8891 130.599 25.8911C130.576 25.8934 130.553 25.8969 130.531 25.9002C130.519 25.902 130.507 25.903 130.495 25.905C130.493 25.9054 130.491 25.9059 130.489 25.9062C130.463 25.9109 130.438 25.917 130.412 25.9232C130.402 25.9257 130.392 25.9276 130.382 25.9303C130.358 25.9365 130.336 25.944 130.313 25.9514C130.301 25.9552 130.289 25.9586 130.277 25.9628C130.261 25.9689 130.245 25.976 130.228 25.9828C130.212 25.9895 130.195 25.9958 130.179 26.0032C130.17 26.0073 130.162 26.012 130.153 26.0163C130.131 26.0273 130.108 26.0384 130.087 26.0506C130.086 26.0513 130.085 26.0522 130.083 26.053C130.026 26.086 129.973 26.1229 129.925 26.1634C129.924 26.1642 129.924 26.165 129.923 26.1658C129.899 26.1858 129.877 26.2064 129.856 26.2279C129.843 26.2412 129.831 26.2553 129.819 26.2692C129.811 26.2785 129.802 26.2876 129.794 26.2972C129.777 26.3183 129.762 26.3401 129.747 26.3622C129.745 26.3653 129.743 26.3683 129.741 26.3713C129.727 26.3919 129.716 26.413 129.704 26.4344C129.702 26.4397 129.698 26.4447 129.695 26.45C129.687 26.4666 129.68 26.4837 129.673 26.5006C129.669 26.5115 129.663 26.5221 129.659 26.533C129.655 26.5451 129.652 26.5575 129.648 26.5697C129.643 26.5863 129.637 26.6029 129.633 26.6197C129.631 26.628 129.63 26.6367 129.629 26.6451C129.624 26.6662 129.62 26.6874 129.618 26.709C129.617 26.7158 129.617 26.7229 129.617 26.7298C129.615 26.7528 129.613 26.7759 129.614 26.7991C129.614 26.8004 129.614 26.8017 129.614 26.803C129.614 26.8122 129.615 26.821 129.616 26.8302C129.617 26.8494 129.618 26.8685 129.621 26.8877C129.623 26.9054 129.627 26.9226 129.631 26.9401C129.633 26.9504 129.634 26.9606 129.637 26.9709L129.64 26.9811C129.64 26.982 129.64 26.9829 129.64 26.9838L130.745 31.2528L128.088 31.3099L126.167 29.8236C126.16 29.8179 126.152 29.8129 126.144 29.8074C126.125 29.7933 126.106 29.7793 126.086 29.7664C126.071 29.7571 126.056 29.7491 126.04 29.7406C126.026 29.7324 126.012 29.7238 125.997 29.7162C125.981 29.7077 125.964 29.7004 125.947 29.6927C125.932 29.6861 125.918 29.6791 125.903 29.673C125.887 29.6664 125.87 29.6607 125.853 29.6547C125.837 29.6489 125.821 29.6427 125.804 29.6375C125.788 29.6326 125.772 29.6288 125.757 29.6245C125.738 29.6196 125.72 29.6142 125.701 29.6101C125.686 29.6067 125.67 29.6043 125.655 29.6015C125.635 29.5979 125.616 29.5939 125.596 29.5911C125.579 29.5888 125.562 29.5876 125.545 29.5859C125.526 29.5841 125.507 29.5817 125.488 29.5805C125.46 29.5789 125.432 29.5788 125.404 29.5789C125.396 29.579 125.388 29.5783 125.379 29.5785C125.371 29.5787 125.363 29.5797 125.355 29.58C125.327 29.5811 125.299 29.5825 125.271 29.5853C125.252 29.5872 125.233 29.5905 125.215 29.5931C125.198 29.5955 125.181 29.5974 125.164 29.6005C125.144 29.6041 125.125 29.6089 125.105 29.6135C125.09 29.6169 125.075 29.62 125.06 29.624C125.041 29.629 125.023 29.635 125.005 29.6408C124.989 29.6457 124.973 29.6503 124.958 29.6558C124.941 29.6617 124.925 29.6686 124.909 29.6751C124.893 29.6818 124.876 29.6881 124.86 29.6956C124.846 29.7023 124.832 29.7099 124.817 29.7171C124.801 29.7255 124.784 29.7336 124.768 29.7428C124.753 29.751 124.74 29.7601 124.726 29.769C124.711 29.7782 124.696 29.7869 124.682 29.7967C124.662 29.8105 124.643 29.8253 124.625 29.8401C124.618 29.8461 124.609 29.8513 124.602 29.8574C124.595 29.8638 124.588 29.8709 124.581 29.8776C124.564 29.8928 124.547 29.9079 124.531 29.924C124.518 29.9367 124.508 29.9499 124.496 29.963C124.487 29.974 124.477 29.9845 124.468 29.9957C124.456 30.0102 124.446 30.0251 124.436 30.0398C124.428 30.0505 124.421 30.061 124.414 30.072C124.404 30.0866 124.396 30.1016 124.388 30.1166C124.382 30.1285 124.375 30.1403 124.369 30.1525C124.362 30.1668 124.356 30.1814 124.35 30.1958C124.344 30.2091 124.338 30.2222 124.334 30.2359C124.328 30.2504 124.325 30.2652 124.321 30.2798C124.317 30.2936 124.312 30.3073 124.309 30.3213C124.305 30.3383 124.303 30.3554 124.3 30.3726C124.298 30.3845 124.296 30.3962 124.295 30.4082C124.292 30.4379 124.29 30.4677 124.291 30.4974L124.364 34.0746C124.364 34.0928 124.366 34.1106 124.368 34.1285C124.353 34.3767 124.465 34.6275 124.703 34.8119C124.922 34.9819 125.207 35.0631 125.491 35.057C125.774 35.0509 126.056 34.9575 126.268 34.7782L128.263 33.0959L130.781 33.0417L129.851 37.3546C129.851 37.3555 129.851 37.3564 129.851 37.3573L129.848 37.3677C129.846 37.378 129.845 37.3883 129.844 37.3987C129.841 37.4162 129.837 37.4337 129.836 37.4515C129.834 37.4709 129.833 37.49 129.833 37.5092C129.833 37.5183 129.832 37.5272 129.832 37.5364C129.832 37.5377 129.833 37.5389 129.833 37.5403C129.833 37.5635 129.836 37.5865 129.838 37.6094C129.839 37.6163 129.839 37.6233 129.84 37.6301C129.844 37.6516 129.849 37.6725 129.854 37.6935C129.856 37.7019 129.857 37.7104 129.859 37.7187C129.864 37.7353 129.87 37.7515 129.876 37.768C129.88 37.7801 129.884 37.7923 129.889 37.8042C129.893 37.8149 129.899 37.8253 129.904 37.8359C129.912 37.8525 129.919 37.8694 129.928 37.8855C129.931 37.8907 129.935 37.8957 129.938 37.9008C129.95 37.9216 129.962 37.9423 129.977 37.9622C129.979 37.9653 129.981 37.9681 129.984 37.971C129.999 37.9925 130.015 38.0137 130.033 38.0339C130.041 38.0433 130.051 38.0518 130.059 38.0609C130.072 38.0743 130.084 38.0879 130.098 38.1006C130.12 38.1211 130.143 38.1408 130.167 38.1597C130.168 38.1605 130.169 38.1612 130.17 38.162C130.219 38.2004 130.274 38.235 130.332 38.2655C130.333 38.2663 130.335 38.2671 130.336 38.2678C130.358 38.2791 130.381 38.2891 130.403 38.2992C130.412 38.3031 130.421 38.3075 130.43 38.3112C130.446 38.3179 130.463 38.3235 130.48 38.3295C130.496 38.3355 130.513 38.342 130.53 38.3473C130.542 38.351 130.554 38.3538 130.566 38.3572C130.589 38.3636 130.612 38.3702 130.635 38.3754C130.645 38.3776 130.656 38.3791 130.666 38.3811C130.692 38.3861 130.717 38.391 130.744 38.3947C130.745 38.395 130.747 38.3954 130.749 38.3957C130.766 38.3979 130.783 38.3988 130.799 38.4005C130.816 38.402 130.832 38.4042 130.849 38.4052C130.886 38.4074 130.923 38.4083 130.959 38.4075C130.961 38.4075 130.963 38.4072 130.965 38.4072L133.307 38.3568C133.308 38.3568 133.308 38.3569 133.309 38.3569C133.312 38.3568 133.315 38.3563 133.319 38.3562C133.357 38.3552 133.395 38.3525 133.433 38.3483C133.444 38.3471 133.455 38.345 133.466 38.3436C133.496 38.3395 133.526 38.3346 133.556 38.3284C133.568 38.3261 133.579 38.3231 133.591 38.3204C133.62 38.3136 133.648 38.3062 133.675 38.2977C133.687 38.2941 133.699 38.2903 133.711 38.2864C133.738 38.2771 133.765 38.2667 133.791 38.2557C133.802 38.2512 133.813 38.2472 133.824 38.2424C133.859 38.2265 133.893 38.2094 133.926 38.1907C133.933 38.1867 133.939 38.1819 133.946 38.1778C133.972 38.1622 133.997 38.1461 134.021 38.129C134.033 38.1205 134.044 38.1115 134.055 38.1026C134.075 38.0875 134.093 38.072 134.111 38.0559C134.121 38.0467 134.131 38.0377 134.141 38.0282C134.163 38.0065 134.184 37.9841 134.203 37.9608C134.207 37.9568 134.211 37.9535 134.214 37.9495L138.349 32.879L140.949 32.8231C141.56 32.81 142.047 32.3988 142.037 31.9048C142.027 31.4109 141.524 31.021 140.912 31.0342ZM132.078 27.6448L132.509 27.6355L135.626 31.1479L132.999 31.2044L132.078 27.6448ZM135.662 32.9368L132.691 36.5801L132.26 36.5893L133.035 32.9933L135.662 32.9368Z" fill="#54766A"/>
<path d="M147.45 28.3439H156.307C156.919 28.3439 157.414 27.9433 157.414 27.4492C157.414 26.9551 156.919 26.5546 156.307 26.5546H147.45C146.839 26.5546 146.343 26.9551 146.343 27.4492C146.343 27.9433 146.839 28.3439 147.45 28.3439Z" fill="#D0947C"/>
<path d="M148.114 33.8419H162.286C163.264 33.8419 164.057 33.4341 164.057 32.931C164.057 32.4279 163.264 32.0201 162.286 32.0201H148.114C147.136 32.0201 146.343 32.4279 146.343 32.931C146.343 33.4341 147.136 33.8419 148.114 33.8419Z" fill="#D0947C"/>
<path d="M150.107 28.3439H158.964C159.576 28.3439 160.071 27.9433 160.071 27.4492C160.071 26.9551 159.576 26.5546 158.964 26.5546H150.107C149.496 26.5546 149 26.9551 149 27.4492C149 27.9433 149.496 28.3439 150.107 28.3439Z" fill="#D0947C"/>
<path d="M170.257 39.2163V23.9129C170.257 22.8565 169.861 22 169.371 22C168.882 22 168.486 22.8565 168.486 23.9129V39.2163C168.486 40.2728 168.882 41.1293 169.371 41.1293C169.861 41.1293 170.257 40.2728 170.257 39.2163Z" fill="#D0947C"/>
<path d="M148.114 38.3965H162.286C163.264 38.3965 164.057 37.9886 164.057 37.4856C164.057 36.9825 163.264 36.5746 162.286 36.5746H148.114C147.136 36.5746 146.343 36.9825 146.343 37.4856C146.343 37.9886 147.136 38.3965 148.114 38.3965Z" fill="#D0947C"/>
<rect x="0.526531" y="0.470306" width="58.3483" height="18.1276" rx="3.5" transform="matrix(0.998323 -0.0578884 0.0547392 0.998501 117.975 30.9322)" fill="white" stroke="#A56953"/>
<path d="M173.493 35.8131C172.882 35.8485 172.409 36.2771 172.436 36.7704L172.779 43.023C172.806 43.5163 173.323 43.8876 173.933 43.8522C174.544 43.8168 175.017 43.3881 174.99 42.8949L174.647 36.6422C174.62 36.1489 174.103 35.7777 173.493 35.8131Z" fill="#D0947C"/>
<path d="M173.248 31.347C172.637 31.3824 172.164 31.811 172.191 32.3043L172.24 33.1975C172.267 33.6908 172.784 34.0621 173.395 34.0267C174.005 33.9913 174.478 33.5626 174.451 33.0693L174.402 32.1761C174.375 31.6828 173.858 31.3116 173.248 31.347Z" fill="#D0947C"/>
<path d="M138.718 38.7483L136.125 38.9546L131.527 34.3256C131.519 34.3177 131.51 34.3109 131.502 34.3032C131.488 34.29 131.474 34.2766 131.459 34.2641C131.445 34.2526 131.43 34.242 131.415 34.2311C131.404 34.2229 131.394 34.2145 131.382 34.2066C131.365 34.195 131.347 34.1843 131.329 34.1736C131.319 34.1676 131.309 34.1612 131.298 34.1554C131.28 34.1454 131.261 34.1362 131.242 34.1271C131.23 34.1216 131.219 34.116 131.207 34.1108C131.189 34.103 131.171 34.096 131.153 34.0891C131.139 34.0838 131.125 34.0783 131.11 34.0735C131.094 34.068 131.077 34.0632 131.06 34.0584C131.043 34.0535 131.026 34.0484 131.009 34.0441C130.994 34.0405 130.978 34.0377 130.963 34.0346C130.944 34.0306 130.924 34.0265 130.904 34.0234C130.89 34.0211 130.875 34.0196 130.86 34.0178C130.84 34.0154 130.819 34.0127 130.799 34.0112C130.782 34.0099 130.764 34.0096 130.747 34.009C130.729 34.0083 130.711 34.0073 130.692 34.0074C130.668 34.0075 130.644 34.0088 130.621 34.0102C130.61 34.0107 130.599 34.0104 130.588 34.0113L130.579 34.012C130.578 34.0121 130.578 34.0121 130.577 34.0122L128.242 34.198C128.228 34.1991 128.214 34.2016 128.2 34.2032C128.179 34.2054 128.159 34.2073 128.139 34.2105C128.116 34.2141 128.094 34.2189 128.071 34.2235C128.06 34.226 128.048 34.2276 128.036 34.2303C128.034 34.2308 128.032 34.2314 128.03 34.2319C128.004 34.2381 127.98 34.2456 127.954 34.2533C127.944 34.2563 127.934 34.2589 127.924 34.2621C127.901 34.2696 127.879 34.2785 127.857 34.2872C127.845 34.2917 127.833 34.2958 127.822 34.3006C127.806 34.3077 127.79 34.3157 127.774 34.3234C127.758 34.3311 127.741 34.3383 127.726 34.3467C127.717 34.3513 127.709 34.3565 127.701 34.3612C127.679 34.3735 127.657 34.3859 127.637 34.3993C127.635 34.4001 127.634 34.401 127.633 34.4019C127.578 34.4382 127.527 34.4781 127.481 34.5213C127.481 34.5222 127.48 34.523 127.479 34.5239C127.457 34.5452 127.435 34.5671 127.416 34.5897C127.403 34.6037 127.393 34.6185 127.381 34.6331C127.373 34.6429 127.365 34.6524 127.358 34.6625C127.342 34.6845 127.328 34.7072 127.314 34.7301C127.312 34.7333 127.31 34.7364 127.308 34.7396C127.296 34.7609 127.286 34.7827 127.276 34.8047C127.273 34.8101 127.27 34.8153 127.267 34.8208C127.26 34.8378 127.254 34.8553 127.248 34.8726C127.244 34.8837 127.24 34.8946 127.236 34.9057C127.232 34.918 127.23 34.9306 127.227 34.943C127.222 34.9599 127.218 34.9767 127.215 34.9938C127.213 35.0022 127.213 35.0109 127.212 35.0194C127.208 35.0407 127.205 35.0622 127.204 35.0838C127.204 35.0907 127.204 35.0977 127.204 35.1047C127.204 35.1277 127.203 35.1508 127.205 35.174C127.205 35.1754 127.205 35.1766 127.205 35.178C127.206 35.1871 127.208 35.1958 127.209 35.2049C127.211 35.224 127.213 35.243 127.217 35.262C127.22 35.2796 127.225 35.2966 127.23 35.3138C127.233 35.3239 127.234 35.3341 127.238 35.3442L127.241 35.3542C127.241 35.3551 127.241 35.356 127.242 35.3569L128.578 39.5552L125.929 39.766L123.93 38.3933C123.922 38.388 123.913 38.3835 123.906 38.3784C123.886 38.3655 123.866 38.3526 123.845 38.3409C123.83 38.3325 123.814 38.3253 123.798 38.3177C123.784 38.3103 123.769 38.3026 123.754 38.2959C123.737 38.2884 123.72 38.282 123.702 38.2753C123.687 38.2696 123.673 38.2634 123.658 38.2582C123.641 38.2525 123.624 38.2478 123.607 38.2428C123.59 38.2379 123.574 38.2327 123.557 38.2285C123.541 38.2245 123.525 38.2216 123.509 38.2183C123.49 38.2144 123.471 38.2101 123.452 38.2071C123.437 38.2046 123.421 38.2031 123.406 38.2012C123.386 38.1988 123.366 38.1958 123.346 38.1942C123.329 38.1929 123.312 38.1926 123.295 38.192C123.276 38.1912 123.257 38.1899 123.238 38.1899C123.21 38.1899 123.182 38.1914 123.154 38.1931C123.146 38.1938 123.138 38.1935 123.13 38.1942C123.121 38.1948 123.113 38.1963 123.105 38.1971C123.077 38.1998 123.049 38.2028 123.022 38.2072C123.003 38.2102 122.984 38.2146 122.966 38.2183C122.949 38.2216 122.932 38.2245 122.916 38.2286C122.896 38.2334 122.877 38.2393 122.858 38.245C122.843 38.2493 122.827 38.2532 122.813 38.2581C122.794 38.2641 122.777 38.2713 122.759 38.2781C122.743 38.2839 122.728 38.2894 122.713 38.2958C122.697 38.3026 122.681 38.3104 122.666 38.3178C122.649 38.3255 122.633 38.3327 122.617 38.3411C122.603 38.3487 122.59 38.357 122.576 38.3651C122.56 38.3744 122.544 38.3835 122.528 38.3936C122.514 38.4027 122.501 38.4126 122.487 38.4222C122.473 38.4323 122.459 38.4418 122.445 38.4524C122.426 38.4673 122.408 38.4832 122.391 38.4991C122.384 38.5055 122.376 38.5111 122.369 38.5176C122.362 38.5245 122.356 38.5319 122.348 38.539C122.332 38.5552 122.316 38.5713 122.301 38.5883C122.29 38.6017 122.28 38.6155 122.269 38.6292C122.26 38.6407 122.25 38.6518 122.242 38.6635C122.232 38.6786 122.222 38.694 122.213 38.7094C122.206 38.7205 122.199 38.7314 122.192 38.7428C122.184 38.7579 122.177 38.7734 122.169 38.7888C122.163 38.801 122.157 38.8132 122.152 38.8257C122.146 38.8405 122.141 38.8553 122.135 38.8701C122.131 38.8837 122.125 38.8972 122.121 38.911C122.117 38.9259 122.114 38.9408 122.111 38.9556C122.108 38.9697 122.104 38.9836 122.101 38.9978C122.099 39.0149 122.097 39.0322 122.096 39.0495C122.094 39.0615 122.093 39.0733 122.092 39.0853C122.091 39.1152 122.091 39.145 122.093 39.1746L122.362 42.7419C122.363 42.7601 122.366 42.7778 122.369 42.7955C122.368 43.0441 122.493 43.2881 122.741 43.4584C122.969 43.6155 123.258 43.6801 123.541 43.6576C123.823 43.6351 124.099 43.5255 124.301 43.3342L126.201 41.539L128.712 41.3392L128.02 45.6991C128.02 45.7 128.02 45.7009 128.019 45.7018L128.018 45.7123C128.016 45.7227 128.016 45.733 128.015 45.7435C128.013 45.7611 128.01 45.7788 128.01 45.7967C128.009 45.8162 128.01 45.8353 128.01 45.8544C128.011 45.8636 128.01 45.8725 128.011 45.8816C128.011 45.883 128.011 45.8842 128.011 45.8855C128.013 45.9087 128.017 45.9315 128.021 45.9542C128.022 45.961 128.023 45.9681 128.024 45.9748C128.029 45.996 128.035 46.0166 128.041 46.0373C128.043 46.0455 128.045 46.054 128.048 46.0621C128.053 46.0784 128.061 46.0942 128.067 46.1103C128.072 46.1221 128.077 46.1341 128.082 46.1457C128.087 46.1562 128.094 46.1662 128.099 46.1765C128.108 46.1927 128.116 46.2091 128.126 46.2247C128.129 46.2297 128.133 46.2344 128.136 46.2393C128.15 46.2595 128.163 46.2794 128.178 46.2984C128.181 46.3014 128.183 46.304 128.186 46.3068C128.203 46.3274 128.22 46.3476 128.239 46.3668C128.247 46.3756 128.257 46.3836 128.266 46.3922C128.28 46.4048 128.293 46.4177 128.307 46.4295C128.33 46.4488 128.354 46.4671 128.379 46.4846C128.38 46.4853 128.381 46.486 128.382 46.4867C128.434 46.5222 128.49 46.5536 128.55 46.5807C128.551 46.5814 128.552 46.5821 128.554 46.5827C128.576 46.5927 128.599 46.6014 128.623 46.6102C128.632 46.6135 128.641 46.6175 128.65 46.6207C128.666 46.6264 128.684 46.631 128.701 46.636C128.718 46.641 128.734 46.6466 128.752 46.6509C128.764 46.6539 128.776 46.656 128.788 46.6586C128.811 46.6638 128.835 46.669 128.858 46.6728C128.869 46.6745 128.879 46.6753 128.89 46.6767C128.916 46.6803 128.941 46.6837 128.968 46.6858C128.97 46.686 128.971 46.6863 128.973 46.6865C128.99 46.6878 129.007 46.6877 129.024 46.6884C129.04 46.6889 129.057 46.6902 129.074 46.6902C129.111 46.6903 129.147 46.6891 129.183 46.6862C129.186 46.686 129.187 46.6856 129.189 46.6855L131.525 46.4996C131.526 46.4996 131.526 46.4996 131.527 46.4996C131.53 46.4993 131.533 46.4986 131.537 46.4984C131.575 46.4951 131.613 46.4901 131.65 46.4838C131.661 46.4819 131.672 46.4793 131.683 46.4772C131.713 46.4713 131.743 46.4647 131.772 46.4568C131.784 46.4538 131.795 46.4502 131.807 46.4468C131.835 46.4384 131.863 46.4294 131.89 46.4192C131.901 46.4149 131.913 46.4105 131.924 46.4059C131.951 46.395 131.977 46.3831 132.003 46.3706C132.014 46.3655 132.024 46.3608 132.034 46.3554C132.069 46.3376 132.102 46.3185 132.134 46.298C132.14 46.2935 132.147 46.2884 132.153 46.2838C132.178 46.2668 132.202 46.2493 132.225 46.2308C132.237 46.2217 132.247 46.212 132.258 46.2025C132.277 46.1863 132.294 46.1698 132.311 46.1526C132.321 46.1429 132.33 46.1332 132.34 46.1232C132.361 46.1003 132.38 46.0767 132.398 46.0523C132.402 46.0482 132.405 46.0446 132.408 46.0404L136.259 40.7386L138.852 40.5323C139.461 40.4837 139.926 40.045 139.889 39.5524C139.851 39.0598 139.327 38.6998 138.718 38.7483ZM129.712 35.8757L130.141 35.8415L133.445 39.1678L130.826 39.3763L129.712 35.8757ZM133.58 40.9518L130.813 44.7613L130.383 44.7955L130.96 41.1603L133.58 40.9518Z" fill="#54766A"/>
<path d="M145.098 35.6838L153.941 35.171C154.551 35.1356 155.024 34.707 154.997 34.2137C154.97 33.7204 154.453 33.3492 153.843 33.3846L145 33.8973C144.389 33.9327 143.916 34.3614 143.943 34.8547C143.97 35.3479 144.487 35.7192 145.098 35.6838Z" fill="#D0947C"/>
<path d="M146.062 41.1346L160.211 40.3142C161.187 40.2575 161.957 39.8044 161.929 39.3021C161.902 38.7999 161.088 38.4386 160.111 38.4952L145.962 39.3157C144.985 39.3723 144.216 39.8254 144.243 40.3277C144.271 40.8299 145.085 41.1912 146.062 41.1346Z" fill="#D0947C"/>
<path d="M147.751 35.5299L156.594 35.0172C157.204 34.9818 157.677 34.5531 157.65 34.0598C157.623 33.5665 157.106 33.1953 156.496 33.2307L147.653 33.7435C147.042 33.7789 146.569 34.2075 146.596 34.7008C146.623 35.1941 147.14 35.5653 147.751 35.5299Z" fill="#D0947C"/>
<path d="M168.464 45.2186L167.626 29.9394C167.568 28.8847 167.125 28.0525 166.637 28.0808C166.149 28.1091 165.8 28.9873 165.857 30.042L166.695 45.3211C166.753 46.3759 167.196 47.2081 167.684 47.1797C168.172 47.1514 168.521 46.2733 168.464 45.2186Z" fill="#D0947C"/>
<path d="M146.311 45.682L160.46 44.8615C161.437 44.8049 162.206 44.3518 162.179 43.8495C162.151 43.3472 161.337 42.9859 160.36 43.0426L146.211 43.863C145.235 43.9197 144.465 44.3728 144.493 44.875C144.52 45.3773 145.334 45.7386 146.311 45.682Z" fill="#D0947C"/>
<path d="M55.6936 116.403H49.9839V108.081C49.9839 106.933 48.7029 106 47.129 106H41.4193C39.8454 106 38.5644 106.933 38.5644 108.081V116.403H32.8549C31.2808 116.403 30 117.337 30 118.484V143.451C30 144.235 30.6044 144.911 31.4844 145.265C31.1505 145.644 30.9515 146.09 30.9515 146.572C30.9515 147.911 32.4455 149 34.2821 149C36.1187 149 37.6129 147.911 37.6129 146.572C37.6129 146.199 37.4864 145.848 37.2789 145.532H51.2696C51.0621 145.849 50.9356 146.199 50.9356 146.572C50.9356 147.911 52.4296 149 54.2662 149C56.1028 149 57.5968 147.911 57.5968 146.572C57.5968 146.09 57.3978 145.644 57.0639 145.265C57.9441 144.911 58.5485 144.235 58.5485 143.451V118.484C58.5483 117.337 57.2675 116.403 55.6936 116.403ZM40.4678 108.081C40.4678 107.698 40.8939 107.387 41.4193 107.387H47.129C47.6544 107.387 48.0807 107.698 48.0807 108.081V108.774H40.4678V108.081ZM40.4678 110.161H48.0807V116.403H40.4678V110.161ZM31.9032 118.484C31.9032 118.101 32.3295 117.79 32.8549 117.79H33.8066V119.871H31.9032V118.484ZM31.903 143.451V142.064H31.9032H33.8064V144.145H32.8547C32.3293 144.145 31.903 143.834 31.903 143.451ZM34.2823 147.613C33.4954 147.613 32.8549 147.146 32.8549 146.572C32.8549 145.999 33.4954 145.532 34.2823 145.532C35.0692 145.532 35.7097 145.999 35.7097 146.572C35.7097 147.146 35.0692 147.613 34.2823 147.613ZM54.266 147.613C53.4789 147.613 52.8386 147.146 52.8386 146.572C52.8386 145.999 53.4791 145.532 54.266 145.532C55.0529 145.532 55.6934 145.999 55.6934 146.572C55.6934 147.146 55.0531 147.613 54.266 147.613ZM56.6451 143.451C56.6451 143.834 56.2187 144.145 55.6936 144.145H54.7419V142.064H56.6451V143.451ZM56.6451 140.677H54.7419C53.6923 140.677 52.8386 141.299 52.8386 142.064V144.145H35.7097V142.064C35.7097 141.299 34.856 140.677 33.8064 140.677H31.9032V121.258H33.8064C34.856 121.258 35.7097 120.636 35.7097 119.871V117.79H38.5646H49.9839H52.8386V119.871C52.8386 120.636 53.6923 121.258 54.7419 121.258H56.6451V140.677ZM56.6451 119.871H54.7419V117.79H55.6936C56.2187 117.79 56.6451 118.101 56.6451 118.484V119.871Z" fill="#A56953"/>
<path d="M36.6614 122.645H34.7581V139.29H36.6614V122.645Z" fill="#54766A"/>
<path d="M41.4193 122.645H39.5161V139.29H41.4193V122.645Z" fill="#54766A"/>
<path d="M53.7903 122.645H51.8871V139.29H53.7903V122.645Z" fill="#54766A"/>
<path d="M49.0322 122.645H47.129V139.29H49.0322V122.645Z" fill="#54766A"/>
<path d="M86.1451 122.645H63.3064C61.7325 122.645 60.4515 123.579 60.4515 124.726V143.452C60.4515 144.235 61.0559 144.911 61.9361 145.265C61.6022 145.644 61.4032 146.091 61.4032 146.573C61.4032 147.911 62.8972 149 64.7338 149C66.5704 149 68.0644 147.911 68.0644 146.573C68.0644 146.199 67.9379 145.849 67.7304 145.532H81.7211C81.5136 145.849 81.3871 146.199 81.3871 146.573C81.3871 147.911 82.8811 149 84.7177 149C86.5543 149 88.0483 147.911 88.0483 146.573C88.0483 146.091 87.8493 145.644 87.5154 145.265C88.3956 144.911 89 144.235 89 143.452V124.726C88.9998 123.579 87.719 122.645 86.1451 122.645ZM64.7338 147.613C63.9469 147.613 63.3064 147.146 63.3064 146.572C63.3064 145.999 63.9469 145.532 64.7338 145.532C65.5207 145.532 66.1612 145.999 66.1612 146.572C66.1612 147.146 65.5207 147.613 64.7338 147.613ZM84.7175 147.613C83.9304 147.613 83.2901 147.146 83.2901 146.572C83.2901 145.999 83.9306 145.532 84.7175 145.532C85.5044 145.532 86.1449 145.999 86.1449 146.572C86.1449 147.146 85.5046 147.613 84.7175 147.613ZM87.0962 143.451C87.0966 143.834 86.6703 144.145 86.1451 144.145H63.3064C62.7813 144.145 62.3547 143.834 62.3547 143.451V129.28L63.9924 128.563C65.5836 127.867 67.4058 127.5 69.2615 127.5H77.2122L76.6783 128.668C76.5118 129.031 76.781 129.425 77.2796 129.545C77.3795 129.569 77.4814 129.581 77.5803 129.581C77.979 129.581 78.3501 129.397 78.4825 129.106L79.2171 127.5H79.749L80.4837 129.106C80.6169 129.397 80.988 129.581 81.3867 129.581C81.4858 129.581 81.5875 129.569 81.6874 129.545C82.1852 129.424 82.4554 129.031 82.2887 128.667L81.8015 127.603C83.089 127.752 84.3328 128.071 85.4585 128.563L87.0962 129.28V143.451V143.451ZM87.0968 127.662L86.4392 127.374C84.6531 126.594 82.6222 126.166 80.545 126.121C80.5156 126.118 80.488 126.12 80.4584 126.119C80.3688 126.118 80.2795 126.113 80.19 126.113H69.2617C67.0607 126.113 64.9005 126.549 63.0135 127.374L62.3549 127.662V124.726C62.3547 124.343 62.781 124.032 63.3064 124.032H86.1451C86.6703 124.032 87.0968 124.343 87.0968 124.726V127.662V127.662Z" fill="#2090A4"/>
<path d="M63.3064 121.952H86.1451C87.719 121.952 89 121.018 88.9951 119.802L88.1892 113.928C88.0808 113.139 87.7781 112.379 87.2927 111.67C85.7977 109.491 82.8153 108.132 79.4837 108.089V108.081C79.4837 106.933 78.2029 106 76.629 106H72.8225C71.2486 106 69.9676 106.933 69.9676 108.081V108.089C66.636 108.132 63.6536 109.492 62.1586 111.67C61.6724 112.379 61.3707 113.139 61.2621 113.929L60.4515 119.871C60.4515 121.018 61.7323 121.952 63.3064 121.952ZM72.8225 107.387H76.629C77.1542 107.387 77.5807 107.698 77.5807 108.081H71.8708C71.8708 107.698 72.2971 107.387 72.8225 107.387ZM63.156 114.067C63.2417 113.446 63.4786 112.848 63.8611 112.29C65.0562 110.55 67.4572 109.468 70.1284 109.468H79.3229C81.9941 109.468 84.3949 110.55 85.5902 112.29C85.9727 112.848 86.2098 113.446 86.2953 114.067L87.0966 119.871C87.0966 120.254 86.6703 120.565 86.1449 120.565H63.3062C62.781 120.565 62.3545 120.254 62.3499 119.94L63.156 114.067Z" fill="#54766A"/>
<path d="M78.5324 113.629H78.5322C78.5322 114.013 78.9575 114.323 79.4839 114.323C80.0103 114.323 80.4356 114.013 80.4356 113.629V112.242H82.3388V110.855H67.1131V112.242H78.5324V113.629V113.629Z" fill="#54766A"/>
<defs>
<clipPath id="clip0">
<rect width="76" height="65" fill="white" transform="translate(16 21)"/>
</clipPath>
<clipPath id="clip1">
<rect width="78" height="87" fill="white" transform="translate(112 62)"/>
</clipPath>
</defs>
</svg>
