<svg width="123" height="131" viewBox="0 0 123 131" fill="none" xmlns="http://www.w3.org/2000/svg">
<path d="M61.5 76.2917C65.093 76.2917 68.6054 75.3044 71.5929 73.4547C74.5804 71.6051 76.9088 68.9761 78.2838 65.9002C79.6588 62.8243 80.0186 59.4397 79.3176 56.1743C78.6166 52.909 76.8864 49.9096 74.3458 47.5554C71.8051 45.2012 68.5681 43.598 65.0441 42.9485C61.5202 42.2989 57.8674 42.6323 54.5479 43.9064C51.2284 45.1804 48.3912 47.338 46.395 50.1062C44.3988 52.8745 43.3333 56.129 43.3333 59.4583C43.3333 63.9228 45.2473 68.2044 48.6542 71.3613C52.0611 74.5182 56.6819 76.2917 61.5 76.2917Z" fill="#54766A"/>
<path d="M88.75 118.375C89.9545 118.375 91.1097 117.932 91.9614 117.142C92.8132 116.353 93.2917 115.283 93.2917 114.167C93.2917 106.354 89.9422 98.861 83.9801 93.3365C78.018 87.812 69.9317 84.7083 61.5 84.7083C53.0683 84.7083 44.982 87.812 39.0199 93.3365C33.0578 98.861 29.7083 106.354 29.7083 114.167C29.7083 115.283 30.1868 116.353 31.0386 117.142C31.8903 117.932 33.0455 118.375 34.25 118.375H88.75Z" fill="#54766A"/>
<rect width="30" height="30" fill="#EFDDB7"/>
<path d="M26.8395 0H3.16047C1.41486 0 0 1.42099 0 3.16047V26.8395C0 28.5851 1.42099 30 3.16047 30H26.8395C28.5851 30 30 28.579 30 26.8395V3.16047C30 1.42099 28.579 0 26.8395 0ZM28.4994 26.8395C28.4994 27.7521 27.7521 28.4994 26.8395 28.4994H3.16047C2.24786 28.4994 1.50061 27.7521 1.50061 26.8395V3.16047C1.50061 2.24786 2.24786 1.50061 3.16047 1.50061H26.8395C27.7521 1.50061 28.4994 2.24786 28.4994 3.16047V26.8395V26.8395Z" fill="#54766A"/>
<path d="M19.5692 10.8963L12.9114 17.5112L10.4308 15.0184C10.1368 14.7244 9.66516 14.7244 9.37116 15.0184C9.07717 15.3124 9.07717 15.784 9.37116 16.078L12.3785 19.1037C12.5194 19.2446 12.7093 19.3242 12.9114 19.3242C13.1074 19.3242 13.2973 19.2446 13.4381 19.1037L20.6288 11.9559C20.9228 11.6619 20.9228 11.1903 20.6288 10.8963C20.3348 10.6023 19.8632 10.6023 19.5692 10.8963Z" fill="#54766A"/>
<rect width="30" height="30" transform="translate(93)" fill="#2090A4"/>
<path d="M119.84 0H96.1605C94.4149 0 93 1.42099 93 3.16047V26.8395C93 28.5851 94.421 30 96.1605 30H119.84C121.585 30 123 28.579 123 26.8395V3.16047C123 1.42099 121.579 0 119.84 0ZM121.499 26.8395C121.499 27.7521 120.752 28.4994 119.84 28.4994H96.1605C95.2479 28.4994 94.5006 27.7521 94.5006 26.8395V3.16047C94.5006 2.24786 95.2479 1.50061 96.1605 1.50061H119.84C120.752 1.50061 121.499 2.24786 121.499 3.16047V26.8395V26.8395Z" fill="#EFDDB7"/>
<path d="M112.569 10.8963L105.911 17.5112L103.431 15.0184C103.137 14.7244 102.665 14.7244 102.371 15.0184C102.077 15.3124 102.077 15.784 102.371 16.078L105.379 19.1037C105.519 19.2446 105.709 19.3242 105.911 19.3242C106.107 19.3242 106.297 19.2446 106.438 19.1037L113.629 11.9559C113.923 11.6619 113.923 11.1903 113.629 10.8963C113.335 10.6023 112.863 10.6023 112.569 10.8963Z" fill="#EFDDB7"/>
<rect width="30" height="30" transform="translate(46)" fill="#D0947C"/>
<path d="M72.8395 0H49.1605C47.4149 0 46 1.42099 46 3.16047V26.8395C46 28.5851 47.421 30 49.1605 30H72.8395C74.5851 30 76 28.579 76 26.8395V3.16047C76 1.42099 74.579 0 72.8395 0ZM74.4994 26.8395C74.4994 27.7521 73.7521 28.4994 72.8395 28.4994H49.1605C48.2479 28.4994 47.5006 27.7521 47.5006 26.8395V3.16047C47.5006 2.24786 48.2479 1.50061 49.1605 1.50061H72.8395C73.7521 1.50061 74.4994 2.24786 74.4994 3.16047V26.8395V26.8395Z" fill="#EFDDB7"/>
<path d="M65.5692 10.8963L58.9114 17.5112L56.4308 15.0184C56.1368 14.7244 55.6652 14.7244 55.3712 15.0184C55.0772 15.3124 55.0772 15.784 55.3712 16.078L58.3785 19.1037C58.5194 19.2446 58.7093 19.3242 58.9114 19.3242C59.1074 19.3242 59.2973 19.2446 59.4381 19.1037L66.6288 11.9559C66.9228 11.6619 66.9228 11.1903 66.6288 10.8963C66.3348 10.6023 65.8632 10.6023 65.5692 10.8963Z" fill="#EFDDB7"/>
</svg>
