<svg width="75" height="75" viewBox="0 0 75 75" fill="none" xmlns="http://www.w3.org/2000/svg">
<g clip-path="url(#clip0)">
<path d="M37.5 75C58.2107 75 75 58.2107 75 37.5C75 16.7893 58.2107 0 37.5 0C16.7893 0 0 16.7893 0 37.5C0 58.2107 16.7893 75 37.5 75Z" fill="#79C9DB"/>
<path d="M37.5 75C16.7893 75 0 58.2107 0 37.5C0 16.7893 16.7893 0 37.5 0V75Z" fill="#99DBFF"/>
<path d="M16.0189 41.6486L2.48715 50.9509C7.89433 65.0162 21.5303 75 37.5 75C50.1028 75 61.253 68.7826 68.0522 59.2485L24.7103 40.779C21.8553 39.5625 18.5764 39.8905 16.0189 41.6486Z" fill="#A56953"/>
<path d="M45.0627 35.5581L9.99243 62.9832C16.8416 70.3728 26.6297 74.9998 37.5 74.9998C54.772 74.9998 69.3142 63.3217 73.6679 47.4316L55.7593 35.2109C52.4982 32.9857 48.1724 33.1262 45.0627 35.5581Z" fill="#C55C51"/>
<path d="M37.5 41.4722L9.99243 62.9834C16.8416 70.373 26.6297 75 37.5 75V41.4722Z" fill="#FD774F"/>
<path d="M38.9095 54.067C24.0894 54.067 12.1198 52.8203 2.46474 50.8911C7.8561 64.988 21.5077 74.9999 37.5 74.9999C51.0034 74.9999 62.8381 67.8613 69.4408 57.1533C62.292 55.2596 52.4246 54.067 38.9095 54.067Z" fill="#D29500"/>
<path d="M37.4999 54.0632C23.3281 53.9868 11.8118 52.7588 2.4646 50.8911C7.8561 64.9879 21.5077 74.9998 37.5 74.9998L37.4999 54.0632Z" fill="#FEAB00"/>
</g>
<defs>
<clipPath id="clip0">
<rect width="75" height="75" fill="white"/>
</clipPath>
</defs>
</svg>
