<svg width="75" height="75" viewBox="0 0 75 75" fill="none" xmlns="http://www.w3.org/2000/svg">
<g clip-path="url(#clip0)">
<path d="M37.5007 75.0004C58.2112 75.0004 75.0004 58.2112 75.0004 37.5007C75.0004 16.7902 58.2112 0.000976562 37.5007 0.000976562C16.7902 0.000976562 0.000999451 16.7902 0.000999451 37.5007C0.000999451 58.2112 16.7902 75.0004 37.5007 75.0004Z" fill="#EFDDB7"/>
<path d="M47.9752 53.0979H17.6004L21.8487 26.5464H43.7274L47.9752 53.0979Z" fill="#A56953"/>
<path d="M17.9971 50.6196L17.6004 53.098H47.9752L47.5785 50.6196H17.9971Z" fill="#8F5B45"/>
<path d="M38.4275 30.5575C36.1553 20.7276 34.1308 19.2498 33.122 19.2498C33.1192 19.2498 33.117 19.2498 33.1136 19.2498C30.8442 19.2671 28.512 26.1909 27.5742 30.5509L26.7437 30.3731C27.0065 29.1503 29.4176 18.4287 33.107 18.4004C33.112 18.4004 33.1175 18.4004 33.122 18.4004C35.3875 18.4004 37.3936 22.3148 39.2553 30.3664L38.4275 30.5575Z" fill="#54766A"/>
<path d="M38.8419 31.3298C39.3212 31.3298 39.7097 30.9413 39.7097 30.462C39.7097 29.9828 39.3212 29.5942 38.8419 29.5942C38.3627 29.5942 37.9742 29.9828 37.9742 30.462C37.9742 30.9413 38.3627 31.3298 38.8419 31.3298Z" fill="#54766A"/>
<path d="M27.1587 31.3298C27.6379 31.3298 28.0264 30.9413 28.0264 30.462C28.0264 29.9828 27.6379 29.5942 27.1587 29.5942C26.6794 29.5942 26.2909 29.9828 26.2909 30.462C26.2909 30.9413 26.6794 31.3298 27.1587 31.3298Z" fill="#54766A"/>
<path d="M33.2186 26.5464H21.8487L17.6004 53.0979H33.2186V26.5464Z" fill="#A56953"/>
<path d="M33.2186 50.6196H17.9971L17.6004 53.098H33.2186V50.6196Z" fill="#8F5B45"/>
<path d="M33.2186 18.4109C33.1864 18.4092 33.1547 18.4009 33.1225 18.4009H33.1075C29.4175 18.4292 27.007 29.1508 26.7442 30.3736L27.5748 30.5513C28.5126 26.1914 30.8448 19.2675 33.1142 19.2503H33.1225C33.1536 19.2503 33.1858 19.252 33.2192 19.2548V18.4109H33.2186Z" fill="#54766A"/>
<path d="M27.1587 31.3298C27.6379 31.3298 28.0264 30.9413 28.0264 30.462C28.0264 29.9828 27.6379 29.5942 27.1587 29.5942C26.6794 29.5942 26.2909 29.9828 26.2909 30.462C26.2909 30.9413 26.6794 31.3298 27.1587 31.3298Z" fill="#54766A"/>
<path d="M56.8957 53.0979H35.4453L38.4453 34.3486H53.8946L56.8957 53.0979Z" fill="#2090A4"/>
<path d="M35.7253 51.3477L35.4453 53.0976H56.8957L56.6151 51.3477H35.7253Z" fill="#54766A"/>
<path d="M50.153 37.1812C48.548 30.2396 47.1185 29.1963 46.4058 29.1963C46.4041 29.1963 46.4024 29.1963 46.3997 29.1963C44.7974 29.2085 43.1502 34.0979 42.4886 37.1762L41.9014 37.0501C42.0875 36.1868 43.7897 28.6157 46.3958 28.5957C46.3991 28.5957 46.403 28.5957 46.4063 28.5957C48.0063 28.5957 49.423 31.3601 50.738 37.0456L50.153 37.1812Z" fill="#393B3F"/>
<path d="M50.4452 37.7265C50.7836 37.7265 51.0579 37.4522 51.0579 37.1138C51.0579 36.7753 50.7836 36.501 50.4452 36.501C50.1067 36.501 49.8324 36.7753 49.8324 37.1138C49.8324 37.4522 50.1067 37.7265 50.4452 37.7265Z" fill="#393B3F"/>
<path d="M42.1947 37.7265C42.5331 37.7265 42.8075 37.4522 42.8075 37.1138C42.8075 36.7753 42.5331 36.501 42.1947 36.501C41.8563 36.501 41.5819 36.7753 41.5819 37.1138C41.5819 37.4522 41.8563 37.7265 42.1947 37.7265Z" fill="#393B3F"/>
<path d="M46.4591 34.3486H38.4453L35.4453 53.0979H46.4591V34.3486Z" fill="#2090A4"/>
<path d="M46.4591 51.3477H35.7253L35.4453 53.0976H46.4591V51.3477Z" fill="#54766A"/>
<path d="M46.4591 28.6013C46.4413 28.6007 46.4241 28.5957 46.4063 28.5957C46.403 28.5957 46.3991 28.5957 46.3958 28.5957C43.7902 28.6157 42.0875 36.1868 41.9014 37.0501L42.4886 37.1762C43.1502 34.0979 44.7974 29.2085 46.3997 29.1963H46.4058C46.423 29.1963 46.4408 29.1974 46.4591 29.1985V28.6013Z" fill="#202125"/>
<path d="M42.1947 37.7265C42.5331 37.7265 42.8075 37.4522 42.8075 37.1138C42.8075 36.7753 42.5331 36.501 42.1947 36.501C41.8563 36.501 41.5819 36.7753 41.5819 37.1138C41.5819 37.4522 41.8563 37.7265 42.1947 37.7265Z" fill="#202125"/>
</g>
<defs>
<clipPath id="clip0">
<rect width="75" height="75" fill="white"/>
</clipPath>
</defs>
</svg>
