<svg width="75" height="75" viewBox="0 0 75 75" fill="none" xmlns="http://www.w3.org/2000/svg">
<path d="M37.4995 74.999C58.2099 74.999 74.999 58.2099 74.999 37.4995C74.999 16.7891 58.2099 0 37.4995 0C16.7891 0 7.62939e-06 16.7891 7.62939e-06 37.4995C7.62939e-06 58.2099 16.7891 74.999 37.4995 74.999Z" fill="#9AB4A9"/>
<path d="M10.9843 10.9826C25.6279 -3.66088 49.372 -3.66088 64.0155 10.9826C78.659 25.6285 78.6614 49.3703 64.0155 64.0162" fill="#54766A"/>
<path d="M47.0693 17.1877H44.5569C44.5814 17.0366 44.6037 16.883 44.6037 16.7237C44.6037 15.1464 43.324 13.8667 41.7467 13.8667H33.2507C31.6735 13.8667 30.3937 15.1464 30.3937 16.7237C30.3937 16.8842 30.416 17.0377 30.4418 17.1877H27.927C24.0446 17.1877 20.8958 19.8724 20.8958 23.1817V43.4923C20.8958 46.804 24.0445 57.8112 27.927 57.8112H47.0669C50.9504 57.8112 54.0981 46.804 54.0981 43.4923V23.1817C54.1005 19.8724 50.953 17.1877 47.0693 17.1877ZM50.0974 29.8741V31.1034C50.0974 35.1756 46.7951 38.4756 42.723 38.4756H32.277C28.2049 38.4756 24.9026 35.1757 24.9026 31.1034V29.8741C24.9026 25.7996 24.5182 22.4997 28.5893 22.4997H46.4096C50.4818 22.4997 50.0974 25.8008 50.0974 29.8741Z" fill="#EFDDB7"/>
<path d="M47.0693 17.1877H44.5569C44.5814 17.0366 44.6037 16.883 44.6037 16.7237C44.6037 15.1464 43.324 13.8667 41.7467 13.8667H33.2507C31.6735 13.8667 30.3937 15.1464 30.3937 16.7237C30.3937 16.8842 30.4161 17.0377 30.4418 17.1877H27.927C24.8285 17.1877 22.2036 18.8974 21.2672 21.268L25.1027 25.1059C25.4473 23.5133 26.3332 22.4985 28.5866 22.4985H46.407C50.4792 22.4985 50.0937 25.7984 50.0937 29.873V31.1022C50.0937 35.1744 46.7914 38.4744 42.7193 38.4744H38.4724L51.9933 51.9965C53.2906 48.8055 54.0968 45.1669 54.0968 43.4911V23.1817C54.1005 19.8724 50.953 17.1877 47.0693 17.1877Z" fill="#EFDDB7"/>
<path d="M34.8633 13.1342C35.6718 13.1342 36.3281 12.4791 36.3281 11.6694V9.32564C36.3281 8.51826 35.6718 7.86084 34.8633 7.86084C34.0547 7.86084 33.3985 8.51826 33.3985 9.32564V11.6694C33.3985 12.479 34.0547 13.1342 34.8633 13.1342Z" fill="#EFDDB7"/>
<path d="M40.1367 13.1342C40.9453 13.1342 41.6015 12.4791 41.6015 11.6694V9.32564C41.6015 8.51826 40.9453 7.86084 40.1367 7.86084C39.3282 7.86084 38.672 8.51826 38.672 9.32564V11.6694C38.6718 12.479 39.328 13.1342 40.1367 13.1342Z" fill="#EFDDB7"/>
<path d="M28.5544 46.5385C27.4103 45.3945 25.8956 45.0543 25.1712 45.7787C24.4468 46.5031 24.787 48.0178 25.931 49.1619C27.0751 50.306 28.5898 50.6461 29.3142 49.9217C30.0387 49.1973 29.6985 47.6826 28.5544 46.5385Z" fill="#9AB4A9"/>
<path d="M46.4387 46.5458C45.2946 47.6899 44.9544 49.2046 45.6788 49.929C46.4033 50.6534 47.918 50.3132 49.062 49.1692C50.2061 48.0251 50.5463 46.5104 49.8219 45.786C49.0974 45.0615 47.5827 45.4017 46.4387 46.5458Z" fill="#9AB4A9"/>
<path d="M38.939 51.2947C39.2542 51.8596 39.0481 52.5745 38.4844 52.8873L18.5171 64.0013C17.9546 64.3153 17.2385 64.1137 16.9233 63.5454C16.6092 62.9805 16.8132 62.2657 17.3779 61.9528L37.3452 50.8413C37.9079 50.5259 38.6227 50.7299 38.939 51.2947Z" fill="#EFDDB7"/>
<path d="M36.062 51.2949C35.7468 51.8597 35.952 52.5746 36.5167 52.8875L56.484 64.0026C57.0476 64.3166 57.7625 64.115 58.0777 63.5467C58.3918 62.9818 58.1878 62.267 57.6231 61.9541L37.6558 50.8426C37.0921 50.526 36.3785 50.73 36.062 51.2949Z" fill="#EFDDB7"/>
<path d="M54.6864 62.4031C54.6864 62.6726 54.4684 62.8906 54.1989 62.8906H20.801C20.5314 62.8906 20.3123 62.6726 20.3123 62.4031C20.3123 62.1335 20.5314 61.9155 20.801 61.9155H54.1989C54.4684 61.9155 54.6864 62.1335 54.6864 62.4031Z" fill="#EFDDB7"/>
<path d="M49.7331 59.5236C49.7331 59.792 49.5771 60.0111 49.3851 60.0111H25.6139C25.4217 60.0111 25.2659 59.7908 25.2659 59.5236C25.2659 59.254 25.4218 59.0337 25.6139 59.0337H49.3849C49.5783 59.0338 49.7331 59.253 49.7331 59.5236Z" fill="#EFDDB7"/>
<path d="M40.2093 18.4811C40.2093 19.2498 39.587 19.8733 38.8171 19.8733H36.1805C35.4118 19.8733 34.7883 19.251 34.7883 18.4811C34.7883 17.7124 35.4106 17.0889 36.1805 17.0889H38.8171C39.587 17.0889 40.2093 17.7112 40.2093 18.4811Z" fill="#9AB4A9"/>
</svg>
