<svg width="205" height="218" viewBox="0 0 205 218" fill="none" xmlns="http://www.w3.org/2000/svg">
<g clip-path="url(#clip0)">
<line x1="130" y1="108.625" x2="202.007" y2="108.625" stroke="#54766A" stroke-width="2.75"/>
<path d="M100.455 81.5575H72.4934V62.4425H100.455C101.228 62.4425 102 61.646 102 60.8496C102 60.0531 101.382 59.2566 100.455 59.2566H72.4934V37.5929C72.4934 36.7965 71.7209 36 70.9485 36C70.1761 36 69.4037 36.6372 69.4037 37.5929V59.2566H41.5963V37.5929C41.5963 36.7965 40.8239 36 40.0515 36C39.2791 36 38.5066 36.6372 38.5066 37.5929V59.2566H10.5449C9.77243 59.2566 9 60.0531 9 60.8496C9 61.646 9.61794 62.4425 10.5449 62.4425H38.5066V81.5575H10.5449C9.77243 81.5575 9 82.354 9 83.1504C9 83.9469 9.61794 84.7434 10.5449 84.7434H38.5066V106.407C38.5066 107.204 39.2791 108 40.0515 108C40.8239 108 41.5963 107.363 41.5963 106.407V84.7434H69.4037V106.407C69.4037 107.204 70.1761 108 70.9485 108C71.7209 108 72.4934 107.363 72.4934 106.407V84.7434H100.455C101.228 84.7434 102 83.9469 102 83.1504C101.846 82.354 101.228 81.5575 100.455 81.5575ZM41.5963 81.5575V62.4425H69.4037V81.5575H41.5963Z" fill="#54766A"/>
<path d="M194.455 81.5575H166.493V62.4425H194.455C195.228 62.4425 196 61.646 196 60.8496C196 60.0531 195.382 59.2566 194.455 59.2566H166.493V37.5929C166.493 36.7965 165.721 36 164.948 36C164.176 36 163.404 36.6372 163.404 37.5929V59.2566H135.596V37.5929C135.596 36.7965 134.824 36 134.051 36C133.279 36 132.507 36.6372 132.507 37.5929V59.2566H104.545C103.772 59.2566 103 60.0531 103 60.8496C103 61.646 103.618 62.4425 104.545 62.4425H132.507V81.5575H104.545C103.772 81.5575 103 82.354 103 83.1504C103 83.9469 103.618 84.7434 104.545 84.7434H132.507V106.407C132.507 107.204 133.279 108 134.051 108C134.824 108 135.596 107.363 135.596 106.407V84.7434H163.404V106.407C163.404 107.204 164.176 108 164.948 108C165.721 108 166.493 107.363 166.493 106.407V84.7434H194.455C195.228 84.7434 196 83.9469 196 83.1504C195.846 82.354 195.228 81.5575 194.455 81.5575ZM135.596 81.5575V62.4425H163.404V81.5575H135.596Z" fill="#54766A"/>
<path d="M194.455 155.558H166.493V136.442H194.455C195.228 136.442 196 135.646 196 134.85C196 134.053 195.382 133.257 194.455 133.257H166.493V111.593C166.493 110.796 165.721 110 164.948 110C164.176 110 163.404 110.637 163.404 111.593V133.257H135.596V111.593C135.596 110.796 134.824 110 134.051 110C133.279 110 132.507 110.637 132.507 111.593V133.257H104.545C103.772 133.257 103 134.053 103 134.85C103 135.646 103.618 136.442 104.545 136.442H132.507V155.558H104.545C103.772 155.558 103 156.354 103 157.15C103 157.947 103.618 158.743 104.545 158.743H132.507V180.407C132.507 181.204 133.279 182 134.051 182C134.824 182 135.596 181.363 135.596 180.407V158.743H163.404V180.407C163.404 181.204 164.176 182 164.948 182C165.721 182 166.493 181.363 166.493 180.407V158.743H194.455C195.228 158.743 196 157.947 196 157.15C195.846 156.354 195.228 155.558 194.455 155.558ZM135.596 155.558V136.442H163.404V155.558H135.596Z" fill="#54766A"/>
<path d="M100.455 155.558H72.4934V136.442H100.455C101.228 136.442 102 135.646 102 134.85C102 134.053 101.382 133.257 100.455 133.257H72.4934V111.593C72.4934 110.796 71.7209 110 70.9485 110C70.1761 110 69.4037 110.637 69.4037 111.593V133.257H41.5963V111.593C41.5963 110.796 40.8239 110 40.0515 110C39.2791 110 38.5066 110.637 38.5066 111.593V133.257H10.5449C9.77243 133.257 9 134.053 9 134.85C9 135.646 9.61794 136.442 10.5449 136.442H38.5066V155.558H10.5449C9.77243 155.558 9 156.354 9 157.15C9 157.947 9.61794 158.743 10.5449 158.743H38.5066V180.407C38.5066 181.204 39.2791 182 40.0515 182C40.8239 182 41.5963 181.363 41.5963 180.407V158.743H69.4037V180.407C69.4037 181.204 70.1761 182 70.9485 182C71.7209 182 72.4934 181.363 72.4934 180.407V158.743H100.455C101.228 158.743 102 157.947 102 157.15C101.846 156.354 101.228 155.558 100.455 155.558ZM41.5963 155.558V136.442H69.4037V155.558H41.5963Z" fill="#54766A"/>
<path d="M204.662 168.676C204.662 181.313 195.089 191.493 183.206 191.493H21.4565C9.5729 191.493 0 181.313 0 168.676V49.3246C0 36.6874 9.5729 26.5074 21.4565 26.5074H183.536C195.419 26.5074 204.992 36.6874 204.992 49.3246V168.676H204.662ZM194.759 49.3246C194.759 42.655 189.477 37.0384 183.206 37.0384H21.4565C15.1846 37.0384 9.903 42.655 9.903 49.3246V168.676C9.903 175.346 15.1846 180.962 21.4565 180.962H183.206C189.477 180.962 194.759 175.346 194.759 168.676V49.3246Z" fill="#D0947C"/>
<path d="M183.303 26H21.5535C16.9321 26 13.301 27.0531 10 29.5103L17.2622 37.2331C18.5826 36.882 19.903 36.531 21.5535 36.531H183.633C189.905 36.531 194.526 42.1475 195.186 47.413V166.062C195.186 172.732 191.555 180.455 183.633 180.455H151.283L162.506 190.986H183.633C195.516 190.986 205.419 180.806 205.089 166.062V47.413C204.759 34.7758 195.186 26 183.303 26Z" fill="#A56953"/>
<line x1="102.375" y1="36.9965" x2="102.375" y2="109.003" stroke="#54766A" stroke-width="2.75"/>
<line x1="10" y1="108.625" x2="82.0069" y2="108.625" stroke="#54766A" stroke-width="2.75"/>
<line x1="82" y1="108.625" x2="154.007" y2="108.625" stroke="#54766A" stroke-width="2.75"/>
<line x1="102.375" y1="109" x2="102.375" y2="181.007" stroke="#54766A" stroke-width="2.75"/>
<g filter="url(#filter0_d)">
<rect x="127.5" y="54.5" width="68" height="20" fill="white" stroke="#54766A"/>
<rect x="130" y="58" width="12" height="12" fill="#9AB4A9"/>
<rect x="147" y="58" width="12" height="12" fill="#EFDDB7"/>
<rect x="164" y="58" width="12" height="12" fill="#D0947C"/>
<rect x="181" y="58" width="12" height="12" fill="#A56953"/>
<g clip-path="url(#clip1)">
<path d="M174.22 55.4671L172.206 58.5653L166.216 56.5128L168.703 53.1213L174.22 55.4671Z" fill="black"/>
<path d="M168.703 53.1213L167.101 56.8891L162.352 54.3755L163.186 50.7756L168.703 53.1213Z" fill="black"/>
<path d="M172.796 58.8162L172.262 60.0722L169.508 58.901L169.243 58.2942L168.623 58.5248L166.745 57.7264L166.127 56.7222L167.279 56.4704L172.796 58.8162Z" fill="black"/>
<path d="M167.279 56.4705L166.745 57.7264L164.867 56.928L164.603 56.3212L163.982 56.5518L161.228 55.3806L161.762 54.1247L167.279 56.4705Z" fill="black"/>
<path d="M171.564 51.5887C171.857 51.5559 172.301 51.5063 172.719 51.3966C173.15 51.2834 173.446 51.0633 173.575 50.7601C173.952 49.8721 172.809 48.5647 170.973 47.7837L170.249 47.8468L170.706 48.4116C171.38 48.6983 171.958 49.08 172.335 49.4863C172.524 49.6897 172.82 50.0768 172.69 50.3838C172.628 50.5293 172.479 50.6339 172.247 50.6949C171.892 50.7881 171.489 50.8332 171.222 50.863C170.59 50.9336 170.036 51.3835 169.96 51.8874L169.145 57.2973L168.623 58.5247L169.508 58.901L170.054 57.6166L170.879 52.1444C170.917 51.8893 171.244 51.6245 171.564 51.5887Z" fill="#77C0BC"/>
<path d="M164.867 56.928L163.982 56.5518L164.529 55.2673L167.897 50.8766C168.054 50.6719 168.019 50.2533 167.822 49.9983C167.642 49.7638 167.37 49.4095 167.159 49.0323C166.942 48.6436 166.895 48.2778 167.024 47.9747C167.401 47.0866 169.136 47.0027 170.973 47.7837L170.706 48.4117C170.031 48.125 169.355 47.973 168.801 47.9837C168.524 47.9891 168.039 48.0439 167.909 48.3509C167.847 48.4963 167.875 48.6762 167.992 48.8855C168.171 49.206 168.418 49.5277 168.582 49.7406C168.969 50.2443 169.03 50.9555 168.719 51.3598L165.389 55.7006L164.867 56.928L164.867 56.928Z" fill="#98D9D5"/>
</g>
</g>
<g filter="url(#filter1_d)">
<path d="M139 113.5L187.5 116.5V172.5L162 169H139V113.5Z" fill="white"/>
</g>
<g filter="url(#filter2_d)">
<path d="M139 106L188 109.305V171L162.237 167.144H139V106Z" fill="white"/>
</g>
<g clip-path="url(#clip2)">
<path d="M160.749 103.013L161.308 106.665L155.472 109.121L155.07 104.934L160.749 103.013Z" fill="black"/>
<path d="M155.07 104.934L156.382 108.812L151.165 110.098L149.391 106.856L155.07 104.934Z" fill="black"/>
<path d="M161.915 106.46L162.353 107.753L159.518 108.712L158.916 108.435L158.607 109.02L156.674 109.674L155.544 109.336L156.237 108.381L161.915 106.46Z" fill="black"/>
<path d="M156.237 108.381L156.674 109.674L154.741 110.328L154.14 110.051L153.831 110.636L150.995 111.596L150.558 110.303L156.237 108.381Z" fill="black"/>
<path d="M156.185 101.886C156.382 101.666 156.68 101.334 156.919 100.974C157.165 100.603 157.24 100.241 157.134 99.9293C156.825 99.0153 155.101 98.8004 153.211 99.4401L152.713 99.9688L153.43 100.087C154.123 99.8517 154.809 99.7513 155.361 99.8039C155.637 99.8302 156.116 99.9216 156.223 100.238C156.274 100.387 156.232 100.565 156.1 100.765C155.897 101.07 155.626 101.372 155.447 101.572C155.022 102.045 154.908 102.75 155.187 103.176L158.179 107.757L158.607 109.02L159.518 108.712L159.07 107.39L156.044 102.757C155.902 102.541 155.97 102.126 156.185 101.886Z" fill="#77C0BC"/>
<path d="M154.741 110.328L153.831 110.636L153.383 109.314L152.974 103.795C152.955 103.538 152.65 103.249 152.334 103.19C152.043 103.135 151.604 103.052 151.196 102.91C150.775 102.765 150.497 102.523 150.391 102.211C150.082 101.297 151.32 100.08 153.211 99.4401L153.43 100.086C152.736 100.321 152.13 100.658 151.723 101.035C151.52 101.223 151.195 101.587 151.302 101.903C151.353 102.053 151.493 102.168 151.72 102.246C152.067 102.366 152.465 102.442 152.729 102.492C153.354 102.61 153.872 103.1 153.91 103.609L154.314 109.065L154.741 110.328L154.741 110.328Z" fill="#98D9D5"/>
</g>
<g filter="url(#filter3_d)">
<rect x="0.620581" y="0.348937" width="38.2015" height="37.3245" transform="matrix(0.964751 -0.263166 0.276412 0.961039 8.92542 117.582)" fill="white" stroke="black"/>
<rect x="0.620581" y="0.348937" width="30.5524" height="26.1075" transform="matrix(0.964751 -0.263166 0.276412 0.961039 13.3903 119.271)" fill="#EFDDB7"/>
<rect x="0.620581" y="0.348937" width="30.5524" height="26.1075" transform="matrix(0.964751 -0.263166 0.276412 0.961039 13.3903 119.271)" fill="#EFDDB7"/>
<rect x="0.620581" y="0.348937" width="30.5524" height="26.1075" transform="matrix(0.964751 -0.263166 0.276412 0.961039 13.3903 119.271)" fill="#EFDDB7"/>
<rect x="0.620581" y="0.348937" width="30.5524" height="26.1075" transform="matrix(0.964751 -0.263166 0.276412 0.961039 13.3903 119.271)" fill="#9AB4A9"/>
<rect x="0.620581" y="0.348937" width="30.5524" height="26.1075" transform="matrix(0.964751 -0.263166 0.276412 0.961039 13.3903 119.271)" stroke="black"/>
<rect x="0.423825" y="0.562776" width="38.2556" height="37.2691" transform="matrix(0.990731 0.13584 -0.143081 0.989711 38.5084 123.829)" fill="white" stroke="black"/>
<rect x="0.423825" y="0.562776" width="30.596" height="26.0684" transform="matrix(0.990731 0.13584 -0.143081 0.989711 41.9021 127.121)" fill="#EFDDB7"/>
<rect x="0.423825" y="0.562776" width="30.596" height="26.0684" transform="matrix(0.990731 0.13584 -0.143081 0.989711 41.9021 127.121)" fill="#EFDDB7"/>
<rect x="0.423825" y="0.562776" width="30.596" height="26.0684" transform="matrix(0.990731 0.13584 -0.143081 0.989711 41.9021 127.121)" fill="#EFDDB7"/>
<rect x="0.423825" y="0.562776" width="30.596" height="26.0684" transform="matrix(0.990731 0.13584 -0.143081 0.989711 41.9021 127.121)" fill="#EFDDB7"/>
<rect x="0.423825" y="0.562776" width="30.596" height="26.0684" transform="matrix(0.990731 0.13584 -0.143081 0.989711 41.9021 127.121)" stroke="black"/>
</g>
<g clip-path="url(#clip3)">
<path d="M73.8793 153.018L69.9834 149.817L73.2948 143.012L77.5312 146.859L73.8793 153.018Z" fill="black"/>
<path d="M77.5312 146.859L72.709 143.999L76.5062 138.817L81.1831 140.7L77.5312 146.859Z" fill="black"/>
<path d="M69.5929 150.476L67.9855 149.523L69.8087 146.448L70.6374 146.272L70.3945 145.46L71.6374 143.364L73.0269 142.853L73.2448 144.317L69.5929 150.476Z" fill="black"/>
<path d="M73.2448 144.317L71.6374 143.364L72.8803 141.268L73.709 141.092L73.466 140.28L75.2893 137.205L76.8967 138.158L73.2448 144.317Z" fill="black"/>
<path d="M79.2724 150.714C79.2865 151.08 79.3079 151.633 79.4113 152.168C79.518 152.721 79.7795 153.134 80.1675 153.364C81.3041 154.038 83.1468 152.96 84.3626 150.91L84.3513 150.013L83.5589 150.433C83.1127 151.186 82.5503 151.799 81.9754 152.16C81.6877 152.341 81.1462 152.609 80.7533 152.376C80.5671 152.266 80.4436 152.059 80.3861 151.762C80.2983 151.307 80.2789 150.805 80.2661 150.472C80.2358 149.685 79.696 148.902 79.0374 148.688L71.9654 146.392L70.3945 145.46L69.8087 146.448L71.4526 147.423L78.6059 149.746C78.9394 149.854 79.2571 150.315 79.2724 150.714Z" fill="#77C0BC"/>
<path d="M72.8803 141.268L73.466 140.28L75.1099 141.255L80.5797 146.417C80.8347 146.657 81.3918 146.715 81.7485 146.537C82.0765 146.374 82.5722 146.127 83.092 145.961C83.6277 145.79 84.1159 145.821 84.5039 146.051C85.6405 146.725 85.5784 148.859 84.3626 150.91L83.5589 150.433C84.0052 149.68 84.2736 148.893 84.3147 148.215C84.3353 147.876 84.3111 147.272 83.9182 147.039C83.7321 146.929 83.4914 146.919 83.2031 147.012C82.7614 147.153 82.3114 147.377 82.0136 147.525C81.3089 147.876 80.3624 147.778 79.8589 147.303L74.4512 142.199L72.8803 141.268L72.8803 141.268Z" fill="#98D9D5"/>
</g>
<g clip-path="url(#clip4)">
<path d="M39.0422 105.23L40.0416 110.269L34.0079 112.982L33.121 107.233L39.0422 105.23Z" fill="black"/>
<path d="M33.121 107.233L34.9577 112.661L29.4656 113.847L27.1998 109.237L33.121 107.233Z" fill="black"/>
<path d="M40.6748 110.054L41.2871 111.864L38.3309 112.864L37.6519 112.422L37.3811 113.185L35.3659 113.867L34.11 113.284L34.7536 112.058L40.6748 110.054Z" fill="black"/>
<path d="M34.7536 112.058L35.3658 113.867L33.3506 114.549L32.6716 114.107L32.4008 114.871L29.4446 115.871L28.8324 114.062L34.7536 112.058Z" fill="black"/>
<path d="M33.994 103.201C34.1831 102.922 34.469 102.501 34.6877 102.037C34.9133 101.557 34.9544 101.073 34.8066 100.636C34.3737 99.3568 32.4904 98.8773 30.519 99.5444L30.0389 100.211L30.8252 100.449C31.5487 100.204 32.2782 100.142 32.8793 100.273C33.1801 100.339 33.7072 100.515 33.8568 100.958C33.9277 101.167 33.9021 101.404 33.7807 101.662C33.5948 102.057 33.3352 102.439 33.1632 102.692C32.7565 103.291 32.7098 104.239 33.0568 104.851L36.7828 111.417L37.3811 113.185L38.3309 112.864L37.7048 111.014L33.9359 104.372C33.7603 104.062 33.7878 103.504 33.994 103.201Z" fill="#77C0BC"/>
<path d="M33.3506 114.549L32.4008 114.871L31.7747 113.02L30.7356 105.455C30.6872 105.102 30.3264 104.675 29.9788 104.559C29.6592 104.453 29.1762 104.292 28.7201 104.056C28.2499 103.812 27.9233 103.452 27.7755 103.015C27.3426 101.736 28.5477 100.211 30.519 99.5444L30.8252 100.449C30.1016 100.694 29.484 101.087 29.0863 101.557C28.8872 101.791 28.5756 102.252 28.7253 102.694C28.7961 102.903 28.9605 103.076 29.2135 103.208C29.6011 103.409 30.0397 103.555 30.3298 103.651C31.0165 103.88 31.6293 104.605 31.7249 105.301L32.7523 112.781L33.3506 114.549L33.3506 114.549Z" fill="#98D9D5"/>
</g>
<g filter="url(#filter4_d)">
<path d="M39.5536 172.903C37.6221 170.436 35.4329 167.64 35.0131 167.173L34.8371 166.977L34.8373 167.255C34.8373 167.439 34.8443 167.636 34.8513 167.83C34.864 168.185 34.8758 168.52 34.8443 168.737C34.4672 171.327 32.2359 174.27 29.8702 175.298C28.8824 175.728 28.2378 175.658 27.9527 175.076C27.3788 173.904 28.3486 170.981 29.0075 169.808C29.4372 169.043 30.6002 167.188 32.1138 166.5C32.2997 166.415 32.5526 166.376 32.9092 166.376C33.1391 166.376 33.3863 166.393 33.6253 166.408C33.7815 166.419 33.9364 166.429 34.0854 166.435L34.3537 166.445L34.1607 166.235C32.974 164.944 31.6959 163.609 30.3617 162.269L30.2329 162.139L30.1926 162.328C30.1288 162.628 30.1083 162.978 30.0867 163.349C30.0545 163.903 30.0211 164.475 29.8345 164.863C28.5626 167.504 26.8938 169.405 24.4238 171.027C24.0141 171.296 23.229 171.747 22.5732 171.747C21.8999 171.747 21.5699 171.277 21.5638 170.31C21.5515 168.787 22.2934 167.513 23.011 166.282C23.0888 166.148 23.1664 166.014 23.243 165.881C24.1287 164.189 25.527 162.761 27.0817 161.96C27.4086 161.791 27.7637 161.713 28.1993 161.713C28.439 161.713 28.6798 161.736 28.9126 161.758C29.1378 161.78 29.3705 161.802 29.5945 161.802L29.893 161.799L29.6907 161.598C28.5927 160.509 27.464 159.423 26.4265 158.458L26.3642 158.399L25.734 158.928L25.7247 158.967C25.6935 159.098 25.6671 159.229 25.6434 159.347C25.6132 159.496 25.5875 159.625 25.5621 159.7C25.2981 160.495 24.8209 161.145 24.2709 161.852C23.1975 163.23 21.9205 164.783 20.3468 165.763C19.8904 166.047 18.3123 166.973 17.1626 166.973C16.5891 166.973 16.2306 166.746 16.0667 166.281C15.6846 165.196 16.7493 163.309 19.0636 160.966C20.1158 159.902 21.4249 158.578 22.7946 158.073C22.9062 158.033 23.1104 158.012 23.4012 158.012C23.7686 158.012 24.2278 158.044 24.6715 158.075C24.8494 158.087 25.0252 158.099 25.1924 158.109L25.2297 158.111L25.659 157.75L25.5558 157.657C25.2359 157.366 24.9536 157.113 24.7175 156.907C24.4279 156.653 23.8305 156.173 23.0741 155.567C22.6999 155.267 22.2873 154.936 21.8537 154.585L21.791 154.534L21.2042 155.046L21.1936 155.07C21.107 155.268 21.0321 155.487 20.9592 155.699C20.8532 156.008 20.7535 156.3 20.6305 156.494C20.2966 157.023 19.8734 157.532 19.3372 158.048C16.7538 160.684 14.5607 162.019 12.8166 162.019C12.3708 162.019 11.9515 161.929 11.5703 161.752C11.2574 161.605 11.0964 161.389 11.0779 161.091C10.9814 159.506 14.7711 156.186 15.6766 155.59L15.8392 155.483C16.8879 154.792 17.9722 154.078 19.18 153.874C19.4379 153.831 19.9696 153.975 20.4833 154.113L20.753 154.184L21.0442 153.931L20.9343 153.839C19.4792 152.651 18.2738 151.628 17.2496 150.714L17.1907 150.661L17.0931 150.737C16.8891 150.974 16.7308 151.321 16.5634 151.688C16.4236 151.994 16.2789 152.311 16.1079 152.553C15.2772 153.723 14.0675 154.737 12.4095 155.653C11.1393 156.357 9.65024 157.076 8.23979 157.076C7.84847 157.076 7.47544 157.02 7.13115 156.909C6.86843 156.806 6.71895 156.649 6.68059 156.431C6.57691 155.849 7.22131 154.852 8.59574 153.471L8.67498 153.391C10.2811 151.763 11.6942 150.825 13.1219 150.438C13.9363 150.216 14.6515 150.108 15.3088 150.108L15.4115 150.109C15.5979 150.112 15.8323 150.183 16.0566 150.256L16.1023 150.271L16.4535 150.011L16.3586 149.901C15.3484 148.964 14.3512 147.942 13.3952 146.864L13.3294 146.79L13.2568 146.857C12.9605 147.129 12.6257 147.546 12.3019 147.949C11.902 148.448 11.4883 148.964 11.1766 149.165C8.41081 150.946 6.84084 151.32 6.01093 151.32C5.31279 151.32 4.81998 151.061 4.54537 150.551C4.4145 148.547 8.10285 146.951 9.49517 146.349L9.65655 146.279C10.6328 145.855 11.4746 145.71 12.2478 145.828L12.5361 145.872L12.3368 145.634C11.9605 145.183 11.5872 144.72 11.2274 144.259L11.1848 144.204L11.1224 144.224C10.9451 144.279 10.7699 144.339 10.5947 144.399C10.0637 144.58 9.51427 144.768 8.91762 144.814C7.45286 144.93 5.82972 144.208 4.73297 142.989C4.68798 142.939 4.63375 142.88 4.57224 142.813C4.05507 142.254 2.97872 141.089 3.00065 140.26C3.00583 140.053 3.08029 139.884 3.22783 139.742C3.68479 139.302 4.43514 139.21 4.98355 139.21C5.2508 139.21 5.52864 139.231 5.80973 139.272C6.81154 139.419 7.93232 139.839 8.96529 140.457C10.4218 141.328 11.5422 142.798 12.626 144.219C13.0007 144.711 13.3885 145.219 13.7828 145.693L13.945 145.888L13.9851 145.227L13.9675 145.195C13.8735 145.024 13.7675 144.836 13.6587 144.643C13.2871 143.985 12.8251 143.166 12.7648 142.863C12.74 142.632 12.712 142.389 12.6839 142.147C12.5562 141.039 12.424 139.893 12.4546 138.761C12.4891 137.462 13.3759 134.603 14.2423 134.603C14.5725 134.603 14.9069 135.034 15.2098 135.85C16.1219 138.305 16.1681 141.57 15.3223 143.788C15.1894 144.137 15.0453 144.421 14.9208 144.659L14.9083 144.682L14.7855 146.687C14.7739 146.876 14.9966 147.128 15.4117 147.528C15.4611 147.576 15.501 147.614 15.5231 147.638C16.118 148.274 16.6909 148.843 17.2745 149.377L17.4148 149.505L17.5225 148.697L17.4883 148.656C17.4056 148.557 17.319 148.46 17.2348 148.365C17.0524 148.161 16.8804 147.967 16.805 147.816C16.526 147.081 16.3695 146.194 16.3316 145.118C16.2682 143.279 16.4693 141.441 16.913 139.801L16.953 139.651C17.1884 138.767 17.814 136.418 18.8176 136.418C18.9474 136.418 19.0824 136.457 19.2201 136.534C20.1288 137.518 20.2439 138.908 20.2837 140.248C20.3431 142.268 20.3052 144.616 19.5706 146.722C19.436 147.109 19.1551 147.511 18.8578 147.938C18.7179 148.138 18.5732 148.346 18.4447 148.552L18.4308 148.575L18.2114 150.219L18.2589 150.26C19.2769 151.156 20.4594 152.15 21.8737 153.298L22.032 153.427L22.0489 152.739L22.0203 152.704C21.9193 152.581 21.8083 152.456 21.6967 152.331C21.3998 151.999 21.0925 151.655 20.9953 151.345C20.7577 150.591 20.6263 149.741 20.5935 148.747C20.5324 146.885 20.7373 145.126 21.1864 143.659C21.4863 142.678 22.4174 140.925 23.2053 140.925C23.4987 140.925 23.7577 141.182 23.9749 141.689C24.5296 142.984 24.5484 144.474 24.5669 145.914C24.5704 146.178 24.5735 146.441 24.5802 146.7C24.6685 148.41 24.1799 151.448 23.0333 152.712C23.0155 152.731 22.9998 152.75 22.9844 152.769L22.9366 152.824L22.9046 154.131L23.6196 154.706C24.3871 155.321 24.9904 155.805 25.2952 156.072C25.3285 156.101 25.8489 156.566 26.6795 157.338L26.842 157.489L26.8542 157.039L26.8221 157.003C26.6548 156.817 26.449 156.638 26.2315 156.449C25.8094 156.083 25.3733 155.704 25.2592 155.292C24.8859 153.946 24.8751 152.261 24.9191 150.642C24.9588 149.155 25.802 145.486 26.927 145.486C27.2926 145.486 27.6789 145.866 28.0756 146.616C28.097 146.658 30.2771 151.035 28.3146 155.434C28.2491 155.582 28.1891 155.721 28.1321 155.852C28.0009 156.157 27.8874 156.419 27.7689 156.634L27.7544 156.661L27.7097 158.304L27.7479 158.341C28.5426 159.094 29.3391 159.864 30.1151 160.629C30.4268 160.874 30.7271 161.097 31.0168 161.299L31.1957 161.423L31.1738 161.188C31.153 160.964 31.135 160.74 31.1226 160.516L31.1201 160.47L31.0912 160.439C30.9548 160.29 30.7816 160.129 30.5984 159.957C29.9274 159.329 29.0924 158.548 29.1323 157.629C29.2059 155.929 29.3238 154.12 29.6835 152.405C29.8633 151.547 30.0799 150.66 30.5705 150.061C30.9082 149.648 31.1701 149.356 31.4671 149.356C31.7327 149.356 32.0412 149.588 32.4381 150.087C32.7852 150.523 33.0781 151.118 33.2141 151.515C33.7668 153.126 33.7085 156.029 33.5938 157.183C33.4789 158.338 33.2212 159.183 32.7827 159.842C32.6196 160.088 32.4469 160.225 32.2797 160.358C32.2005 160.42 32.1256 160.48 32.0581 160.546L32.0191 160.584L32.0228 160.642C32.0647 161.305 32.14 161.925 32.2529 162.538L32.2585 162.57L32.2781 162.594C32.7019 163.11 33.2972 163.629 33.7759 164.046C34.0467 164.282 34.2803 164.486 34.4264 164.639L34.766 164.996L34.5926 164.511C33.9687 162.767 33.737 158.967 34.7773 156.74C35.2096 155.814 35.8177 155.246 36.5846 155.053C37.0991 154.923 37.5201 155.102 37.8435 155.59C38.9518 157.262 38.6082 161.78 38.2924 162.974C38.1186 163.632 37.6398 164.15 37.1769 164.651C36.6795 165.19 36.2093 165.698 36.1992 166.324C36.194 166.648 36.3838 167.088 36.7787 167.669C36.973 167.894 38.7594 170.205 40.3353 172.246C41.5391 173.803 42.6827 175.284 43 175.682L42.3036 176.397C41.9328 175.942 40.8239 174.525 39.5536 172.903Z" fill="#54766A"/>
</g>
<path d="M156.786 122.242L156.63 123.006C156.627 123.396 156.789 123.718 157.117 123.97C157.455 124.223 157.859 124.351 158.329 124.355C158.799 124.359 159.205 124.212 159.548 123.914C159.9 123.607 160.078 123.204 160.082 122.704C160.086 122.204 159.924 121.807 159.597 121.515C159.269 121.212 158.885 121.059 158.445 121.056C158.225 121.054 157.99 121.127 157.738 121.275C157.487 121.423 157.322 121.497 157.242 121.496C156.942 121.494 156.793 121.342 156.795 121.043C156.797 120.853 156.968 120.659 157.31 120.462C157.662 120.254 158.042 120.152 158.452 120.156C159.112 120.161 159.7 120.396 160.217 120.86C160.733 121.324 160.988 121.936 160.982 122.696C160.976 123.456 160.711 124.074 160.188 124.55C159.664 125.025 159.057 125.261 158.367 125.255C157.687 125.25 157.103 125.07 156.616 124.716C156.139 124.362 155.852 123.92 155.757 123.389C155.273 123.816 154.786 124.027 154.297 124.023C153.817 124.019 153.454 123.716 153.209 123.114C153.071 122.783 152.956 122.237 152.862 121.476C152.778 120.716 152.698 120.06 152.622 119.509C152.547 118.949 152.444 118.668 152.314 118.667C152.204 118.666 152.051 119.045 151.855 119.803C151.659 120.552 151.508 121.306 151.402 122.065C151.306 122.824 151.172 123.363 150.999 123.682C150.827 123.99 150.535 124.143 150.125 124.14C149.715 124.136 149.388 123.834 149.143 123.232C148.985 122.891 148.831 122.204 148.679 121.173C148.527 120.142 148.389 119.211 148.266 118.38C148.153 117.549 148.056 117.133 147.976 117.132C147.836 117.131 147.567 118.214 147.17 120.381C146.773 122.548 146.572 123.946 146.567 124.576C146.565 124.866 146.413 125.01 146.113 125.008C145.813 125.006 145.665 124.859 145.667 124.569C145.672 123.919 145.847 122.641 146.192 120.733C146.538 118.816 146.766 117.698 146.879 117.379C147.002 117.05 147.088 116.835 147.139 116.736C147.19 116.636 147.291 116.527 147.442 116.408C147.593 116.289 147.773 116.231 147.983 116.232C148.193 116.234 148.373 116.296 148.522 116.417C148.75 116.609 148.893 116.85 148.951 117.14C149.019 117.421 149.128 118.112 149.28 119.213C149.658 121.906 149.958 123.248 150.178 123.24C150.298 123.241 150.417 122.747 150.534 121.758C150.662 120.759 150.925 119.726 151.324 118.659C151.416 118.38 151.533 118.161 151.674 118.002C151.825 117.843 152.041 117.765 152.321 117.767C152.801 117.771 153.144 118.073 153.349 118.675C153.427 118.876 153.508 119.366 153.592 120.147C153.676 120.918 153.771 121.609 153.876 122.219C153.991 122.82 154.139 123.121 154.319 123.123C154.509 123.124 154.734 123.031 154.996 122.843C155.267 122.655 155.489 122.432 155.661 122.174C155.843 121.915 156.069 121.787 156.339 121.789C156.639 121.791 156.788 121.942 156.786 122.242ZM162.79 120.94C163.09 120.942 163.239 121.094 163.237 121.394C163.236 121.514 163.21 121.633 163.159 121.753C163.108 121.873 163.082 122.017 163.08 122.187C163.079 122.347 163.128 122.513 163.227 122.684C163.335 122.854 163.489 123.041 163.687 123.242C163.886 123.434 164.184 123.601 164.583 123.744C164.982 123.888 165.381 123.961 165.781 123.964C166.191 123.967 166.542 123.865 166.834 123.657C167.126 123.45 167.273 123.156 167.276 122.776C167.281 122.146 167.14 121.64 166.853 121.257C166.566 120.865 166.163 120.667 165.643 120.663C165.403 120.661 165.157 120.734 164.906 120.882C164.665 121.03 164.509 121.104 164.439 121.103C164.139 121.101 163.99 120.95 163.993 120.65C163.994 120.46 164.166 120.266 164.507 120.069C164.859 119.861 165.24 119.759 165.65 119.763C166.41 119.769 167.023 120.054 167.488 120.617C167.954 121.171 168.183 121.893 168.176 122.783C168.171 123.423 167.927 123.931 167.444 124.307C166.971 124.683 166.464 124.869 165.924 124.865C165.384 124.861 164.89 124.792 164.441 124.658C164.002 124.515 163.648 124.342 163.38 124.14C163.112 123.928 162.878 123.701 162.68 123.459C162.344 123.037 162.177 122.65 162.18 122.3C162.182 121.94 162.24 121.626 162.352 121.357C162.464 121.077 162.61 120.939 162.79 120.94ZM171.197 117.182C171.019 116.93 170.931 116.675 170.934 116.415C170.936 116.155 171.022 115.93 171.194 115.742C171.375 115.553 171.596 115.425 171.857 115.357C172.128 115.289 172.438 115.226 172.788 115.169C173.139 115.112 173.444 115.069 173.705 115.041C174.385 114.967 174.745 114.93 174.785 114.93C174.836 114.92 174.906 114.916 174.996 114.917C175.296 114.919 175.444 115.07 175.442 115.37C175.441 115.45 175.401 115.54 175.32 115.639C175.239 115.739 175.159 115.793 175.079 115.802C174.998 115.812 174.823 115.835 174.553 115.873C174.293 115.901 174.022 115.934 173.742 115.972C173.462 116 173.172 116.037 172.871 116.085C172.18 116.199 171.834 116.312 171.834 116.422C171.833 116.502 172.011 116.763 172.367 117.206C172.724 117.639 173.14 118.147 173.615 118.731C174.101 119.315 174.447 119.782 174.654 120.134C174.871 120.476 174.978 120.862 174.975 121.292C174.972 121.712 174.813 122.185 174.499 122.713C174.195 123.231 173.821 123.668 173.378 124.024C172.946 124.371 172.498 124.657 172.036 124.884C171.575 125.1 171.149 125.207 170.759 125.203C170.379 125.2 170.05 125.073 169.772 124.821C169.504 124.568 169.371 124.242 169.375 123.842C169.383 122.772 169.73 121.915 170.415 121.271C171.11 120.616 171.833 120.292 172.583 120.298C172.723 120.299 172.943 120.326 173.242 120.378C173.542 120.43 173.746 120.487 173.856 120.548C173.658 120.216 173.213 119.638 172.52 118.812C171.826 117.977 171.385 117.433 171.197 117.182ZM174.028 121.569C173.868 121.488 173.629 121.406 173.31 121.324C172.99 121.241 172.746 121.199 172.576 121.198C172.086 121.194 171.579 121.43 171.055 121.906C170.541 122.372 170.281 123.02 170.275 123.85C170.273 123.99 170.333 124.1 170.452 124.181C170.571 124.262 170.731 124.303 170.931 124.305C171.131 124.306 171.432 124.204 171.833 123.997C172.245 123.79 172.673 123.469 173.116 123.032C173.56 122.586 173.864 122.098 174.028 121.569Z" fill="black"/>
</g>
<defs>
<filter id="filter0_d" x="123" y="44.8049" width="77" height="38.1951" filterUnits="userSpaceOnUse" color-interpolation-filters="sRGB">
<feFlood flood-opacity="0" result="BackgroundImageFix"/>
<feColorMatrix in="SourceAlpha" type="matrix" values="0 0 0 0 0 0 0 0 0 0 0 0 0 0 0 0 0 0 127 0"/>
<feOffset dy="4"/>
<feGaussianBlur stdDeviation="2"/>
<feColorMatrix type="matrix" values="0 0 0 0 0 0 0 0 0 0 0 0 0 0 0 0 0 0 0.25 0"/>
<feBlend mode="normal" in2="BackgroundImageFix" result="effect1_dropShadow"/>
<feBlend mode="normal" in="SourceGraphic" in2="effect1_dropShadow" result="shape"/>
</filter>
<filter id="filter1_d" x="135" y="113.5" width="56.5" height="67" filterUnits="userSpaceOnUse" color-interpolation-filters="sRGB">
<feFlood flood-opacity="0" result="BackgroundImageFix"/>
<feColorMatrix in="SourceAlpha" type="matrix" values="0 0 0 0 0 0 0 0 0 0 0 0 0 0 0 0 0 0 127 0"/>
<feOffset dy="4"/>
<feGaussianBlur stdDeviation="2"/>
<feColorMatrix type="matrix" values="0 0 0 0 0 0 0 0 0 0 0 0 0 0 0 0 0 0 0.25 0"/>
<feBlend mode="normal" in2="BackgroundImageFix" result="effect1_dropShadow"/>
<feBlend mode="normal" in="SourceGraphic" in2="effect1_dropShadow" result="shape"/>
</filter>
<filter id="filter2_d" x="135" y="106" width="57" height="73" filterUnits="userSpaceOnUse" color-interpolation-filters="sRGB">
<feFlood flood-opacity="0" result="BackgroundImageFix"/>
<feColorMatrix in="SourceAlpha" type="matrix" values="0 0 0 0 0 0 0 0 0 0 0 0 0 0 0 0 0 0 127 0"/>
<feOffset dy="4"/>
<feGaussianBlur stdDeviation="2"/>
<feColorMatrix type="matrix" values="0 0 0 0 0 0 0 0 0 0 0 0 0 0 0 0 0 0 0.25 0"/>
<feBlend mode="normal" in2="BackgroundImageFix" result="effect1_dropShadow"/>
<feBlend mode="normal" in="SourceGraphic" in2="effect1_dropShadow" result="shape"/>
</filter>
<filter id="filter3_d" x="5" y="107.089" width="76.3157" height="68" filterUnits="userSpaceOnUse" color-interpolation-filters="sRGB">
<feFlood flood-opacity="0" result="BackgroundImageFix"/>
<feColorMatrix in="SourceAlpha" type="matrix" values="0 0 0 0 0 0 0 0 0 0 0 0 0 0 0 0 0 0 127 0"/>
<feOffset dy="4"/>
<feGaussianBlur stdDeviation="2"/>
<feColorMatrix type="matrix" values="0 0 0 0 0 0 0 0 0 0 0 0 0 0 0 0 0 0 0.25 0"/>
<feBlend mode="normal" in2="BackgroundImageFix" result="effect1_dropShadow"/>
<feBlend mode="normal" in="SourceGraphic" in2="effect1_dropShadow" result="shape"/>
</filter>
<filter id="filter4_d" x="-1" y="133" width="48" height="53" filterUnits="userSpaceOnUse" color-interpolation-filters="sRGB">
<feFlood flood-opacity="0" result="BackgroundImageFix"/>
<feColorMatrix in="SourceAlpha" type="matrix" values="0 0 0 0 0 0 0 0 0 0 0 0 0 0 0 0 0 0 127 0"/>
<feOffset dy="4"/>
<feGaussianBlur stdDeviation="2"/>
<feColorMatrix type="matrix" values="0 0 0 0 0 0 0 0 0 0 0 0 0 0 0 0 0 0 0.25 0"/>
<feBlend mode="normal" in2="BackgroundImageFix" result="effect1_dropShadow"/>
<feBlend mode="normal" in="SourceGraphic" in2="effect1_dropShadow" result="shape"/>
</filter>
<clipPath id="clip0">
<rect width="205" height="218" fill="white"/>
</clipPath>
<clipPath id="clip1">
<rect width="15.2251" height="10.8042" fill="white" transform="translate(163.967 44.8049) rotate(23.0352)"/>
</clipPath>
<clipPath id="clip2">
<rect width="15.2251" height="10.8042" fill="white" transform="translate(146 101.88) rotate(-18.6956)"/>
</clipPath>
<clipPath id="clip3">
<rect width="18.1845" height="14.7942" fill="white" transform="translate(89 143.089) rotate(120.666)"/>
</clipPath>
<clipPath id="clip4">
<rect width="15.8758" height="15.1207" fill="white" transform="translate(23 102.089) rotate(-18.6956)"/>
</clipPath>
</defs>
</svg>
